<svg version="1.1" xmlns="http://www.w3.org/2000/svg" viewBox="0 0 2194.3964476747497 1292.6046113491739" width="2194.3964476747497" height="1292.6046113491739">
  <!-- svg-source:excalidraw -->
  
  <defs>
    <style class="style-fonts">
      @font-face {
        font-family: "Virgil";
        src: url("https://excalidraw.com/Virgil.woff2");
      }
      @font-face {
        font-family: "Cascadia";
        src: url("https://excalidraw.com/Cascadia.woff2");
      }
      @font-face {
        font-family: "Assistant";
        src: url("https://excalidraw.com/Assistant-Regular.woff2");
      }
    </style>
    
  </defs>
  <rect x="0" y="0" width="2194.3964476747497" height="1292.6046113491739" fill="#ffffff"></rect><g stroke-linecap="round" transform="translate(208.95233371697321 68.64651413357751) rotate(0 90.0317203349648 41.53758197956835)"><path d="M3.06 7.96 C3.06 7.96, 3.06 7.96, 3.06 7.96 M3.06 7.96 C3.06 7.96, 3.06 7.96, 3.06 7.96 M3.85 19.24 C5.2 16.5, 7.52 15.83, 13.69 7.92 M3.85 19.24 C7.39 16.12, 8.97 12.17, 13.69 7.92 M3.98 31.28 C9.83 23.66, 17.31 14.64, 26.94 4.87 M3.98 31.28 C12.21 23.33, 19.6 14.88, 26.94 4.87 M4.11 43.32 C15.58 33.36, 22.83 19.47, 37.57 4.83 M4.11 43.32 C13.42 31.73, 22.39 22.03, 37.57 4.83 M4.24 55.37 C17.58 41.11, 31.42 26.93, 48.2 4.8 M4.24 55.37 C17.4 40.99, 29.36 26.12, 48.2 4.8 M3.07 68.92 C21.22 48.72, 36.99 25.99, 58.17 5.52 M3.07 68.92 C19.74 49.96, 35.03 33.77, 58.17 5.52 M5.82 77.94 C25.56 53.57, 48.67 27.5, 68.8 5.49 M5.82 77.94 C27.74 52.06, 50.55 26.53, 68.8 5.49 M11.86 83.19 C35.12 57.58, 56.76 33.67, 79.44 5.45 M11.86 83.19 C35.77 56.09, 59.65 30.55, 79.44 5.45 M21.83 83.91 C46.35 57.25, 67.32 27.76, 90.07 5.42 M21.83 83.91 C38.52 63.97, 57.71 42.99, 90.07 5.42 M32.47 83.87 C49.74 61.61, 68.56 42.36, 100.7 5.38 M32.47 83.87 C58.04 54.21, 83.32 24.99, 100.7 5.38 M43.1 83.84 C67.52 55.59, 90.63 30.71, 111.33 5.35 M43.1 83.84 C63.86 59.84, 85.82 36.59, 111.33 5.35 M53.73 83.8 C81.21 52.73, 107.87 25.5, 121.96 5.31 M53.73 83.8 C72.65 60.83, 93.36 39.09, 121.96 5.31 M64.36 83.77 C87.41 55.82, 111.31 28.51, 132.59 5.28 M64.36 83.77 C80.58 66.17, 96.08 48.15, 132.59 5.28 M74.99 83.73 C92.55 64.08, 112.08 41.85, 143.22 5.24 M74.99 83.73 C91 64.88, 108.92 44.34, 143.22 5.24 M85.62 83.7 C107.34 61.57, 123.35 40.74, 153.85 5.21 M85.62 83.7 C102.85 62.72, 121.61 42.04, 153.85 5.21 M96.25 83.67 C121 57.17, 145.76 28.96, 165.13 4.42 M96.25 83.67 C122.57 52.99, 150.22 21.2, 165.13 4.42 M106.88 83.63 C126.49 61.1, 143.1 41.03, 175.11 5.14 M106.88 83.63 C127.71 59.28, 147.45 35.44, 175.11 5.14 M117.51 83.6 C142.16 54.38, 167.37 24.76, 180.49 11.14 M117.51 83.6 C141.32 57.75, 163.68 30.11, 180.49 11.14 M127.48 84.32 C144.72 66.48, 160.25 47.79, 183.9 19.41 M127.48 84.32 C146.66 63.48, 164.27 41.5, 183.9 19.41 M138.11 84.28 C150.2 72.04, 160.76 61.2, 184.03 31.45 M138.11 84.28 C154.65 64.99, 172.03 43.92, 184.03 31.45 M148.74 84.25 C161.1 69.68, 175.56 51.29, 184.17 43.49 M148.74 84.25 C163.55 68.28, 176.34 52.77, 184.17 43.49 M160.03 83.46 C165.02 76.94, 172.92 70.08, 184.3 55.53 M160.03 83.46 C166.94 75.07, 173.55 67.48, 184.3 55.53" stroke="#ffc9c9" stroke-width="1" fill="none"></path><path d="M20.77 0 C67.06 -0.84, 110.34 1.75, 159.29 0 M20.77 0 C73.3 -0.06, 125.81 0.11, 159.29 0 M159.29 0 C173.39 -1.91, 179.97 7.44, 180.06 20.77 M159.29 0 C172.6 0.48, 178.79 8.08, 180.06 20.77 M180.06 20.77 C181.48 37.87, 182.03 51.96, 180.06 62.31 M180.06 20.77 C180.54 30.27, 179.76 42.19, 180.06 62.31 M180.06 62.31 C181.8 77.88, 174.57 83.64, 159.29 83.08 M180.06 62.31 C182.04 77.24, 174.08 82.2, 159.29 83.08 M159.29 83.08 C124.82 82.43, 93.46 81.86, 20.77 83.08 M159.29 83.08 C120.78 82.55, 80.72 82.6, 20.77 83.08 M20.77 83.08 C5.34 83.65, 0.26 76.22, 0 62.31 M20.77 83.08 C6.04 82.86, -0.68 77.18, 0 62.31 M0 62.31 C0.77 51.81, 0.9 42.37, 0 20.77 M0 62.31 C-0.04 50.45, -0.94 39.84, 0 20.77 M0 20.77 C-1.14 5.17, 5.77 1.61, 20.77 0 M0 20.77 C0.24 6.62, 4.97 0.02, 20.77 0" stroke="#1e1e1e" stroke-width="2" fill="none"></path></g><g transform="translate(258.77207132488724 87.68409611314587) rotate(0 40.21198272705078 22.5)"><text x="40.21198272705078" y="31.536" font-family="Virgil, Segoe UI Emoji" font-size="36px" fill="#1e1e1e" text-anchor="middle" style="white-space: pre;" direction="ltr" dominant-baseline="alphabetic">User</text></g><g stroke-linecap="round" transform="translate(196.6048496624282 1134.3231608019237) rotate(0 90.0317203349648 41.53758197956836)"><path d="M3.06 7.96 C3.06 7.96, 3.06 7.96, 3.06 7.96 M3.06 7.96 C3.06 7.96, 3.06 7.96, 3.06 7.96 M3.85 19.24 C6.41 16.7, 8.51 14.47, 13.69 7.92 M3.85 19.24 C7.12 16.14, 9.69 11.75, 13.69 7.92 M3.98 31.28 C12.09 22.31, 21.08 15.54, 26.94 4.87 M3.98 31.28 C12.59 20.94, 20.69 11.55, 26.94 4.87 M4.11 43.32 C16.5 28.85, 29.31 14.49, 37.57 4.83 M4.11 43.32 C11.66 34.72, 18.44 26.41, 37.57 4.83 M4.24 55.37 C18.47 39.61, 31.69 22.47, 48.2 4.8 M4.24 55.37 C19.66 38.55, 34.25 21.33, 48.2 4.8 M3.07 68.92 C21.3 47.22, 39.85 29.1, 58.17 5.52 M3.07 68.92 C14.82 56.1, 27 41.51, 58.17 5.52 M5.82 77.94 C26.69 55.9, 47.67 31.76, 68.8 5.49 M5.82 77.94 C25.12 54.31, 43.9 33.15, 68.8 5.49 M11.86 83.19 C27.98 63.94, 42.41 47.68, 79.44 5.45 M11.86 83.19 C27.74 63.47, 44.5 45.86, 79.44 5.45 M21.83 83.91 C45.02 57.34, 69.92 28.92, 90.07 5.42 M21.83 83.91 C44.04 57.23, 68.47 30.43, 90.07 5.42 M32.47 83.87 C50.12 65.36, 63.05 46.25, 100.7 5.38 M32.47 83.87 C49.85 64.27, 65.72 46.38, 100.7 5.38 M43.1 83.84 C58.22 66.82, 72.15 48.91, 111.33 5.35 M43.1 83.84 C62.14 61.21, 79.6 40.23, 111.33 5.35 M53.73 83.8 C69.18 64.77, 84.78 44.81, 121.96 5.31 M53.73 83.8 C68.87 65.47, 83.9 48.22, 121.96 5.31 M64.36 83.77 C83.51 59, 104.3 37.79, 132.59 5.28 M64.36 83.77 C85.19 59.8, 106.22 34.95, 132.59 5.28 M74.99 83.73 C99.47 53.06, 127.74 22.68, 143.22 5.24 M74.99 83.73 C99.42 55.29, 123.62 27.84, 143.22 5.24 M85.62 83.7 C105.09 62.57, 123.55 37.74, 153.85 5.21 M85.62 83.7 C102.51 65.04, 118.15 46.2, 153.85 5.21 M96.25 83.67 C121.39 57.96, 142.43 28.35, 165.13 4.42 M96.25 83.67 C118.8 57.05, 142.97 31.36, 165.13 4.42 M106.88 83.63 C122.6 65.81, 137.89 48.17, 175.11 5.14 M106.88 83.63 C123.11 67.81, 137.67 50.28, 175.11 5.14 M117.51 83.6 C136.83 63.81, 152.01 43.5, 180.49 11.14 M117.51 83.6 C140.99 56.06, 163.75 30.32, 180.49 11.14 M127.48 84.32 C148.57 60.66, 168.52 38.38, 183.9 19.41 M127.48 84.32 C149.72 57.8, 172.46 33.13, 183.9 19.41 M138.11 84.28 C152.65 69.15, 165.03 52.05, 184.03 31.45 M138.11 84.28 C156.66 65.17, 173.55 43.98, 184.03 31.45 M148.74 84.25 C164.38 68.69, 174.47 54.87, 184.17 43.49 M148.74 84.25 C157.68 72.91, 167.19 61.85, 184.17 43.49 M160.03 83.46 C166.67 76.77, 172.76 67.43, 184.3 55.53 M160.03 83.46 C165.97 76.79, 172.3 68.98, 184.3 55.53" stroke="#ffc9c9" stroke-width="1" fill="none"></path><path d="M20.77 0 C50.68 -1.98, 76.62 -0.76, 159.29 0 M20.77 0 C54.16 -0.36, 87.25 0.85, 159.29 0 M159.29 0 C172.67 0.42, 178.95 7.93, 180.06 20.77 M159.29 0 C174.65 0.81, 180.74 8.38, 180.06 20.77 M180.06 20.77 C179.37 37.31, 181.07 54.51, 180.06 62.31 M180.06 20.77 C180.79 31.09, 180.64 39.98, 180.06 62.31 M180.06 62.31 C181.78 77.1, 173.96 82.31, 159.29 83.08 M180.06 62.31 C178.67 78.13, 171.38 81.57, 159.29 83.08 M159.29 83.08 C114.51 84.56, 69.19 83.96, 20.77 83.08 M159.29 83.08 C112 83.92, 66.42 83.66, 20.77 83.08 M20.77 83.08 C6.16 82.89, -0.59 77.04, 0 62.31 M20.77 83.08 C5.81 81.93, 1.64 76.8, 0 62.31 M0 62.31 C-0.79 50.62, -0.77 37.77, 0 20.77 M0 62.31 C-0.24 52.06, -0.24 44.38, 0 20.77 M0 20.77 C0.2 6.66, 5.23 0.02, 20.77 0 M0 20.77 C1.15 5.93, 8.71 1.33, 20.77 0" stroke="#1e1e1e" stroke-width="2" fill="none"></path></g><g transform="translate(246.42458727034222 1153.360742781492) rotate(0 40.21198272705078 22.5)"><text x="40.21198272705078" y="31.536" font-family="Virgil, Segoe UI Emoji" font-size="36px" fill="#1e1e1e" text-anchor="middle" style="white-space: pre;" direction="ltr" dominant-baseline="alphabetic">User</text></g><g stroke-linecap="round"><g transform="translate(271.02870453236864 155.51469607025365) rotate(0 6.565149201549957 491.0344230710755)"><path d="M-0.18 -0.72 C2.1 162.95, 10.5 817.95, 12.74 981.56 M-1.73 1.52 C0.44 165.39, 9.21 819.47, 11.59 982.83" stroke="#1e1e1e" stroke-width="2" fill="none"></path></g></g><mask></mask><g stroke-linecap="round" transform="translate(580.66406039036 63.52190473839073) rotate(0 130.99631449239405 50)"><path d="M6 6.54 C6 6.54, 6 6.54, 6 6.54 M6 6.54 C6 6.54, 6 6.54, 6 6.54 M3.51 21.6 C7.73 15.35, 16.03 7.32, 17.94 5 M3.51 21.6 C6.82 17.93, 10.19 14.7, 17.94 5 M3.64 33.64 C14.85 22.45, 22.55 10.04, 29.23 4.21 M3.64 33.64 C12.41 22.86, 22.05 12.24, 29.23 4.21 M3.12 46.44 C14.61 34.48, 24.45 21.22, 39.86 4.17 M3.12 46.44 C15.1 33.19, 26.31 19.51, 39.86 4.17 M3.25 58.48 C20.18 40.87, 36.03 22.01, 50.49 4.14 M3.25 58.48 C17.57 41.24, 32.83 24.01, 50.49 4.14 M3.38 70.52 C26.52 47.19, 47.43 24.58, 61.12 4.1 M3.38 70.52 C18.1 52.72, 34.83 35.13, 61.12 4.1 M2.86 83.31 C24.35 58.5, 43.71 32.09, 71.75 4.07 M2.86 83.31 C27.31 55.53, 51.08 27.07, 71.75 4.07 M5.62 92.33 C31.94 63.91, 54.28 36.48, 82.38 4.03 M5.62 92.33 C29.69 63.42, 55.78 35.03, 82.38 4.03 M11 98.34 C26.74 77.29, 44.15 60.09, 93.01 4 M11 98.34 C33.14 74.18, 54.79 47.72, 93.01 4 M18.35 102.08 C42.86 75.61, 65.82 46.56, 103.64 3.96 M18.35 102.08 C47.1 70.02, 74.98 37.44, 103.64 3.96 M28.32 102.8 C55.46 74.21, 79 41.78, 114.27 3.93 M28.32 102.8 C59.41 68.1, 88.21 33.76, 114.27 3.93 M38.95 102.76 C60.84 78.91, 80.14 54.37, 124.9 3.9 M38.95 102.76 C57.89 81.08, 75.79 59.84, 124.9 3.9 M49.58 102.73 C74.94 72.89, 100.98 43.51, 135.53 3.86 M49.58 102.73 C71.28 76.68, 92.59 52.55, 135.53 3.86 M60.21 102.69 C76.07 81.01, 95.42 58.48, 146.16 3.83 M60.21 102.69 C95.23 63.71, 129.63 23.85, 146.16 3.83 M70.84 102.66 C94 76.86, 118.09 48.41, 156.79 3.79 M70.84 102.66 C99.94 69.21, 130 34.06, 156.79 3.79 M81.47 102.62 C105.2 73.73, 129.51 47.9, 167.42 3.76 M81.47 102.62 C114.2 65.25, 147.05 27.7, 167.42 3.76 M92.1 102.59 C119.06 72.62, 150.32 39.71, 178.05 3.72 M92.1 102.59 C118.44 72.13, 146.27 39.76, 178.05 3.72 M102.73 102.56 C132.84 67.56, 161.75 31.45, 188.68 3.69 M102.73 102.56 C128.71 73.79, 153.56 44.16, 188.68 3.69 M113.36 102.52 C142.21 69.05, 168.66 36.93, 199.31 3.65 M113.36 102.52 C145.26 66.86, 176.12 30.48, 199.31 3.65 M123.99 102.49 C142.6 81.72, 164.73 57.74, 209.94 3.62 M123.99 102.49 C142.76 80.86, 163 56.18, 209.94 3.62 M133.97 103.21 C168.66 62.79, 201.86 23.48, 220.57 3.59 M133.97 103.21 C156.5 76.34, 180.16 49.73, 220.57 3.59 M144.6 103.17 C171.86 72.05, 199.43 41.59, 231.2 3.55 M144.6 103.17 C168.72 75.09, 192.48 48.5, 231.2 3.55 M155.23 103.14 C188.33 64.97, 219.72 28.3, 241.17 4.27 M155.23 103.14 C177.03 78.49, 198.52 53.17, 241.17 4.27 M165.86 103.1 C190.81 74.63, 213.77 49.13, 252.46 3.48 M165.86 103.1 C185.4 79.56, 206.02 57.51, 252.46 3.48 M176.49 103.07 C204.54 70.68, 237.66 36.9, 257.84 9.49 M176.49 103.07 C206.32 69.93, 236.63 35.52, 257.84 9.49 M187.12 103.03 C206.97 82.14, 224.56 62.61, 263.88 14.73 M187.12 103.03 C215.8 69.54, 244.02 36.48, 263.88 14.73 M197.75 103 C214.75 84.51, 232.22 64.28, 266.64 23.76 M197.75 103 C218.41 80.83, 238.27 57.22, 266.64 23.76 M208.38 102.97 C227.93 77.77, 250.91 55.43, 266.77 35.8 M208.38 102.97 C222.84 84.34, 238.16 67.1, 266.77 35.8 M219.01 102.93 C232.25 88.21, 244.75 72.59, 266.9 47.84 M219.01 102.93 C233.81 86.07, 248.02 69.89, 266.9 47.84 M229.64 102.9 C240.98 93.46, 249 82.13, 267.03 59.88 M229.64 102.9 C241.75 90.41, 253.19 77.75, 267.03 59.88 M240.27 102.86 C247.59 90.9, 257.05 81.46, 263.23 76.45 M240.27 102.86 C247.63 92.43, 256.45 83.8, 263.23 76.45" stroke="#ffc9c9" stroke-width="1" fill="none"></path><path d="M25 0 C84.75 0.82, 144.32 0.52, 236.99 0 M25 0 C93.56 0.05, 163.68 -0.08, 236.99 0 M236.99 0 C254.25 1.27, 263.9 10.16, 261.99 25 M236.99 0 C254.59 -1.24, 262.14 9.06, 261.99 25 M261.99 25 C263.58 43.99, 263.36 60.93, 261.99 75 M261.99 25 C262.83 41.02, 261.82 58.67, 261.99 75 M261.99 75 C260.46 90.36, 254.07 100.51, 236.99 100 M261.99 75 C261.82 91.24, 255.49 98.54, 236.99 100 M236.99 100 C163.65 97.54, 89.42 99.16, 25 100 M236.99 100 C172.37 100.22, 107.84 99.39, 25 100 M25 100 C9.76 100.56, -0.05 92.36, 0 75 M25 100 C9.43 99.25, 0.78 90.94, 0 75 M0 75 C-0.1 58.37, -1.38 42.86, 0 25 M0 75 C-0.9 55.99, 0.45 36.54, 0 25 M0 25 C1.55 9.49, 9.9 1.56, 25 0 M0 25 C-0.09 9.9, 8.03 -1.04, 25 0" stroke="#1e1e1e" stroke-width="2" fill="none"></path></g><g transform="translate(591.5104115038478 91.02190473839073) rotate(0 120.14996337890625 22.5)"><text x="120.14996337890625" y="31.536" font-family="Virgil, Segoe UI Emoji" font-size="36px" fill="#1e1e1e" text-anchor="middle" style="white-space: pre;" direction="ltr" dominant-baseline="alphabetic">API Gateway</text></g><g stroke-linecap="round"><g transform="translate(702.9202930323806 157.8227878608418) rotate(0 5.8872481162025 487.7175499034822)"><path d="M-0.06 0.31 C1.84 163.11, 9.63 813.07, 11.49 975.69 M-1.54 -0.58 C0.15 161.95, 8.47 811.27, 10.39 973.7" stroke="#1e1e1e" stroke-width="2" fill="none"></path></g></g><mask></mask><g stroke-linecap="round" transform="translate(944.156236403908 59.979064542347714) rotate(0 124.66520257030902 50)"><path d="M6 6.54 C6 6.54, 6 6.54, 6 6.54 M6 6.54 C6 6.54, 6 6.54, 6 6.54 M0.88 24.62 C5.2 18.49, 11.73 12.44, 21.88 0.47 M0.88 24.62 C9.77 15.76, 17.42 5.2, 21.88 0.47 M1.02 36.66 C6.63 27.14, 15.19 19.15, 32.51 0.43 M1.02 36.66 C9.88 26.44, 19.78 15.32, 32.51 0.43 M1.15 48.7 C12.18 38.38, 21.43 26.4, 43.14 0.4 M1.15 48.7 C10.05 37.8, 20.84 26.41, 43.14 0.4 M1.28 60.74 C15.49 40.56, 33.06 22.12, 53.77 0.36 M1.28 60.74 C17.49 43.33, 33.92 24.63, 53.77 0.36 M1.42 72.78 C28.06 42.51, 52.65 16.09, 64.4 0.33 M1.42 72.78 C26.21 45.05, 49.73 16.28, 64.4 0.33 M1.55 84.82 C19.17 65.35, 35.77 45.09, 75.03 0.29 M1.55 84.82 C22.78 62.21, 42.71 37.43, 75.03 0.29 M5.62 92.33 C35.35 53.65, 68.01 18.6, 85.66 0.26 M5.62 92.33 C33.91 60.89, 59.37 30.41, 85.66 0.26 M11.66 97.58 C44.34 61.23, 77.62 24.56, 95.63 0.98 M11.66 97.58 C29.07 77.31, 48.07 56.06, 95.63 0.98 M20.32 99.81 C44.68 72.9, 68.76 45.11, 106.26 0.95 M20.32 99.81 C42.66 76.1, 63.9 50.5, 106.26 0.95 M30.29 100.53 C51.62 79.24, 70.63 54.07, 116.89 0.91 M30.29 100.53 C53.58 75.71, 75.62 49.31, 116.89 0.91 M40.92 100.5 C69.62 66.65, 99.34 30.84, 127.52 0.88 M40.92 100.5 C64.26 73.48, 87.46 46.83, 127.52 0.88 M51.55 100.46 C75.57 73.45, 97.83 44.82, 138.15 0.84 M51.55 100.46 C85.15 61.97, 116.72 25.47, 138.15 0.84 M62.18 100.43 C77.69 81.14, 96.66 60.79, 148.78 0.81 M62.18 100.43 C81.34 79.21, 100.27 58.24, 148.78 0.81 M72.81 100.4 C96.18 74.78, 118.87 50.59, 159.41 0.77 M72.81 100.4 C95.34 74.52, 116.87 49.07, 159.41 0.77 M83.44 100.36 C114.87 63.36, 146.73 27.35, 170.04 0.74 M83.44 100.36 C106.67 72.39, 132.26 46.27, 170.04 0.74 M94.07 100.33 C126.29 62.65, 158.79 28.13, 180.67 0.7 M94.07 100.33 C112.54 77.25, 132.59 53.83, 180.67 0.7 M104.7 100.29 C125.85 75.76, 149.96 48.38, 191.3 0.67 M104.7 100.29 C131.98 67.33, 160.63 33.53, 191.3 0.67 M115.33 100.26 C139.07 74.88, 162.54 47.55, 201.93 0.64 M115.33 100.26 C143.95 66.36, 174.04 34.51, 201.93 0.64 M125.96 100.22 C156.36 63.67, 189.66 29.12, 212.56 0.6 M125.96 100.22 C143.46 79.25, 161.54 57.42, 212.56 0.6 M136.59 100.19 C158.29 76.92, 176.44 56, 223.19 0.57 M136.59 100.19 C156.94 76.73, 177.71 53.26, 223.19 0.57 M147.22 100.15 C173.46 72.71, 195.49 45.17, 233.17 1.29 M147.22 100.15 C168.93 74.98, 190.35 49.15, 233.17 1.29 M157.85 100.12 C176.51 80.01, 195.66 58.4, 240.52 5.03 M157.85 100.12 C186.88 66.62, 216.1 32.34, 240.52 5.03 M168.48 100.08 C194.45 69.06, 220.41 39.52, 246.55 10.27 M168.48 100.08 C195.66 66.62, 225.3 35.66, 246.55 10.27 M179.11 100.05 C205.29 68.03, 235.45 37.17, 249.31 19.3 M179.11 100.05 C201.22 76.83, 221.97 52.36, 249.31 19.3 M189.74 100.02 C210.78 77.95, 228.91 54.52, 249.44 31.34 M189.74 100.02 C207.52 79.39, 226.28 59.1, 249.44 31.34 M200.37 99.98 C210.77 88.21, 224.06 74.91, 249.58 43.38 M200.37 99.98 C210.96 85.89, 222.4 73.6, 249.58 43.38 M211 99.95 C224.82 83.42, 235.59 68.44, 249.71 55.42 M211 99.95 C220.18 89.26, 229.65 78.24, 249.71 55.42 M221.63 99.91 C233.33 88.26, 243.46 75.16, 249.84 67.46 M221.63 99.91 C231.39 90.1, 241.24 78.58, 249.84 67.46 M233.58 98.37 C240.78 92.77, 246.65 86.49, 248.67 81.01 M233.58 98.37 C239.74 91.17, 243.91 85.03, 248.67 81.01" stroke="#ffc9c9" stroke-width="1" fill="none"></path><path d="M25 0 C84.3 -0.64, 143.76 1.79, 224.33 0 M25 0 C92.76 -0.35, 159.02 -1.8, 224.33 0 M224.33 0 C241.12 0.63, 250.23 6.89, 249.33 25 M224.33 0 C240.24 2.24, 251.33 10.32, 249.33 25 M249.33 25 C250.42 44.39, 248.71 60.93, 249.33 75 M249.33 25 C249.15 44.55, 248.87 63.42, 249.33 75 M249.33 75 C250.92 90.4, 241.98 100.71, 224.33 100 M249.33 75 C248.01 92.58, 239.18 100.66, 224.33 100 M224.33 100 C161.74 98.65, 100.41 98.27, 25 100 M224.33 100 C174.4 100.9, 124.99 100.23, 25 100 M25 100 C9.01 99.37, 0.2 90.18, 0 75 M25 100 C6.49 99.46, -1.31 89.65, 0 75 M0 75 C-0.66 61.18, -0.38 51.75, 0 25 M0 75 C0.39 62.93, -0.43 49.98, 0 25 M0 25 C-0.26 7.43, 9.61 0.96, 25 0 M0 25 C1.04 9.26, 8.34 -2.03, 25 0" stroke="#1e1e1e" stroke-width="2" fill="none"></path></g><g transform="translate(957.9594776094709 87.47906454234771) rotate(0 110.8619613647461 22.5)"><text x="110.8619613647461" y="31.536" font-family="Virgil, Segoe UI Emoji" font-size="36px" fill="#1e1e1e" text-anchor="middle" style="white-space: pre;" direction="ltr" dominant-baseline="alphabetic">Auth Service</text></g><g stroke-linecap="round"><g transform="translate(1066.6303658233617 155.81329535784698) rotate(0 7.686914092779716 488.439837369418)"><path d="M0.79 0.42 C3.52 163.26, 13.11 814.72, 15.73 977.64 M-0.26 -0.4 C2.41 162.05, 12.2 813.15, 14.96 975.92" stroke="#1e1e1e" stroke-width="2" fill="none"></path></g></g><mask></mask><g stroke-linecap="round" transform="translate(1271.5259688696513 32.29003330630758) rotate(0 144.5260903207884 63.38465147738066)"><path d="M7.78 8.09 C7.78 8.09, 7.78 8.09, 7.78 8.09 M7.78 8.09 C7.78 8.09, 7.78 8.09, 7.78 8.09 M1.35 27.68 C9.22 21.47, 15.9 12.63, 24.31 1.26 M1.35 27.68 C9.05 18.94, 14.72 11.7, 24.31 1.26 M1.49 39.72 C9.69 27.38, 21.71 17.17, 35.6 0.47 M1.49 39.72 C12.06 28.56, 22.58 16.53, 35.6 0.47 M0.96 52.51 C18.47 32.01, 35.24 15.06, 46.23 0.44 M0.96 52.51 C16.73 33.66, 31.24 16.51, 46.23 0.44 M1.1 64.55 C12.05 49.96, 28.47 35.39, 56.86 0.4 M1.1 64.55 C22.89 39.92, 44.15 14.2, 56.86 0.4 M1.23 76.59 C23.86 51.58, 46.79 23.93, 67.49 0.37 M1.23 76.59 C14.63 61.25, 28.59 45.52, 67.49 0.37 M1.36 88.63 C18.21 69.82, 38.27 48.2, 78.12 0.33 M1.36 88.63 C18.29 67.55, 34.32 48.03, 78.12 0.33 M0.84 101.43 C26.38 74.98, 49.71 43.79, 88.75 0.3 M0.84 101.43 C23.25 74.46, 47.71 47.65, 88.75 0.3 M2.94 111.21 C32.29 76.02, 62.74 44.17, 99.38 0.26 M2.94 111.21 C23.77 86.48, 46.15 61.74, 99.38 0.26 M7.67 117.97 C40.99 81.78, 75.91 43.4, 110.01 0.23 M7.67 117.97 C34.61 87.27, 62.95 55.65, 110.01 0.23 M14.36 122.46 C46.4 86.21, 80.99 47.96, 120.64 0.2 M14.36 122.46 C35.55 97.46, 57.42 72.52, 120.64 0.2 M21.71 126.2 C45.3 99.55, 68.09 72.66, 131.27 0.16 M21.71 126.2 C58.06 86.19, 92.87 45.04, 131.27 0.16 M31.68 126.92 C60.13 96.65, 85.13 63.1, 141.9 0.13 M31.68 126.92 C62.43 90.86, 92.97 57.13, 141.9 0.13 M42.31 126.88 C85.09 78.35, 128.54 29.64, 152.53 0.09 M42.31 126.88 C78.68 86.5, 113.79 46.02, 152.53 0.09 M52.94 126.85 C97.51 77.7, 139.88 26.69, 163.16 0.06 M52.94 126.85 C83.21 89.47, 115.34 52.77, 163.16 0.06 M63.57 126.81 C95.54 87.03, 128.54 51.71, 173.79 0.02 M63.57 126.81 C102.06 81.61, 140.98 36.63, 173.79 0.02 M74.2 126.78 C113 83.1, 148.2 42.06, 184.42 -0.01 M74.2 126.78 C98.55 99.47, 122.04 73.63, 184.42 -0.01 M84.83 126.75 C118.69 87.5, 150.3 50.72, 195.05 -0.05 M84.83 126.75 C113.51 94.04, 142.54 61.58, 195.05 -0.05 M95.46 126.71 C132.22 85.3, 165.51 47.43, 205.68 -0.08 M95.46 126.71 C135.45 81.23, 174.09 36.79, 205.68 -0.08 M106.09 126.68 C139.67 87.25, 173.68 48.15, 216.31 -0.11 M106.09 126.68 C136.65 93.62, 166.22 58.56, 216.31 -0.11 M116.72 126.64 C157.31 79.04, 199.01 32.2, 226.94 -0.15 M116.72 126.64 C153.95 84.33, 192.37 39.73, 226.94 -0.15 M127.35 126.61 C168.95 80.03, 209.74 32.27, 237.57 -0.18 M127.35 126.61 C170.3 79.88, 211.3 33.11, 237.57 -0.18 M137.98 126.57 C173.84 85.2, 209.38 44.4, 247.55 0.54 M137.98 126.57 C174.21 85.26, 209.63 43.51, 247.55 0.54 M148.61 126.54 C182.47 84.6, 215.62 47.14, 258.18 0.5 M148.61 126.54 C187.89 78.34, 228.83 32.57, 258.18 0.5 M159.24 126.5 C199.21 80.94, 242.67 33.02, 267.49 1.98 M159.24 126.5 C200.58 79.13, 241.89 30.84, 267.49 1.98 M169.87 126.47 C202.61 89.22, 234.2 54.13, 275.5 4.96 M169.87 126.47 C212.32 77.9, 254.96 30.68, 275.5 4.96 M179.85 127.19 C220.9 80.25, 257.94 34.98, 282.19 9.46 M179.85 127.19 C213.11 89.22, 245.84 49.4, 282.19 9.46 M190.48 127.16 C215.44 100.56, 237.78 74.52, 286.92 16.21 M190.48 127.16 C209.29 105.05, 229.02 82.17, 286.92 16.21 M201.11 127.12 C229.17 94.17, 261.34 61.29, 289.02 25.99 M201.11 127.12 C223.59 99.76, 249.41 71.72, 289.02 25.99 M211.74 127.09 C239.7 93.73, 268.67 56.68, 289.15 38.03 M211.74 127.09 C233.64 102.85, 254.24 76.72, 289.15 38.03 M222.37 127.05 C243.08 106.5, 258.73 83.7, 289.29 50.07 M222.37 127.05 C242.13 103.6, 263.19 79.16, 289.29 50.07 M233 127.02 C251.47 104.1, 272.01 83.25, 289.42 62.11 M233 127.02 C251.3 105.69, 269.11 84.6, 289.42 62.11 M243.63 126.98 C252.81 117.1, 261.92 103.73, 289.55 74.15 M243.63 126.98 C262.98 106, 280 85.32, 289.55 74.15 M254.26 126.95 C264.64 115.57, 272.01 105.16, 289.03 86.95 M254.26 126.95 C267.03 111.99, 281.22 95.11, 289.03 86.95 M265.55 126.16 C272.01 117.11, 281.07 106.8, 289.16 98.99 M265.55 126.16 C270.75 118.87, 278.71 111.48, 289.16 98.99" stroke="#ffc9c9" stroke-width="1" fill="none"></path><path d="M31.69 0 C115.32 1.06, 198.33 0.13, 257.36 0 M31.69 0 C87.63 -1.23, 142.51 0.23, 257.36 0 M257.36 0 C280.22 1.72, 290.48 11.13, 289.05 31.69 M257.36 0 C280.47 1.09, 290 9.68, 289.05 31.69 M289.05 31.69 C288.29 47.28, 290.1 61.9, 289.05 95.08 M289.05 31.69 C290.05 49.9, 288.98 67.78, 289.05 95.08 M289.05 95.08 C287.47 116.78, 278.75 126.84, 257.36 126.77 M289.05 95.08 C288.17 115.99, 277.81 127.79, 257.36 126.77 M257.36 126.77 C201.08 128.11, 144.43 128.97, 31.69 126.77 M257.36 126.77 C197.06 125.52, 135.91 125.96, 31.69 126.77 M31.69 126.77 C9.43 125.01, -1.15 117.81, 0 95.08 M31.69 126.77 C10.8 126.47, -1.95 116.23, 0 95.08 M0 95.08 C1.43 74.45, 1.84 50.63, 0 31.69 M0 95.08 C0.72 72.23, 0.53 48.82, 0 31.69 M0 31.69 C0 8.8, 10.52 -1.31, 31.69 0 M0 31.69 C-1.12 9.94, 9.8 2.03, 31.69 0" stroke="#1e1e1e" stroke-width="2" fill="none"></path></g><g transform="translate(1311.3281059433693 50.674684783688235) rotate(0 104.72395324707031 45)"><text x="104.72395324707031" y="31.536" font-family="Virgil, Segoe UI Emoji" font-size="36px" fill="#1e1e1e" text-anchor="middle" style="white-space: pre;" direction="ltr" dominant-baseline="alphabetic">Deployment </text><text x="104.72395324707031" y="76.536" font-family="Virgil, Segoe UI Emoji" font-size="36px" fill="#1e1e1e" text-anchor="middle" style="white-space: pre;" direction="ltr" dominant-baseline="alphabetic">Service</text></g><g stroke-linecap="round"><g transform="translate(1413.925548047713 160.5989542103598) rotate(0 8.050075388501682 485.2561233435895)"><path d="M0.49 -0.65 C2.99 160.99, 13.48 809.17, 16.18 970.89 M-0.72 1.63 C1.54 163.4, 12.46 807.49, 15.27 968.97" stroke="#1e1e1e" stroke-width="2" fill="none"></path></g></g><mask></mask><g stroke-linecap="round" transform="translate(1629.772481722772 10) rotate(0 115.08984973977522 77.07611266064578)"><path d="M7.86 8.16 C7.86 8.16, 7.86 8.16, 7.86 8.16 M7.86 8.16 C7.86 8.16, 7.86 8.16, 7.86 8.16 M1.43 27.75 C9.72 21.36, 13.8 11.14, 24.4 1.33 M1.43 27.75 C7.78 19.53, 13.81 13.23, 24.4 1.33 M0.91 40.54 C11.69 29.17, 22.99 17.92, 36.34 -0.21 M0.91 40.54 C11.59 29.02, 21.01 17.07, 36.34 -0.21 M1.04 52.58 C16.25 35.84, 29.02 16.56, 46.97 -0.25 M1.04 52.58 C15.04 36.64, 27.73 23.44, 46.97 -0.25 M1.18 64.62 C18.8 42.84, 39.71 19.3, 57.6 -0.28 M1.18 64.62 C20.82 41.45, 41.32 18.58, 57.6 -0.28 M1.31 76.67 C24.14 51.53, 45.36 28.1, 67.57 0.44 M1.31 76.67 C24.76 50.08, 48.19 25.06, 67.57 0.44 M1.44 88.71 C28.95 58.61, 52.83 25.77, 78.2 0.41 M1.44 88.71 C20.32 66.23, 41.7 42.73, 78.2 0.41 M0.92 101.5 C23.39 73.18, 47.35 48.02, 88.83 0.37 M0.92 101.5 C33.92 63.45, 66.64 25.68, 88.83 0.37 M1.05 113.54 C36.05 73.5, 69.46 36.76, 99.46 0.34 M1.05 113.54 C31.01 79.03, 62.25 45.11, 99.46 0.34 M1.19 125.58 C44.53 76.73, 86.87 31.46, 110.09 0.3 M1.19 125.58 C31.72 89.38, 64.08 54.24, 110.09 0.3 M3.29 135.36 C44.13 87.36, 85.28 40.21, 120.72 0.27 M3.29 135.36 C31.24 105, 57.95 74.09, 120.72 0.27 M6.7 143.63 C39.49 106.45, 74.39 66.55, 131.35 0.23 M6.7 143.63 C36.68 108.64, 68.28 72.37, 131.35 0.23 M12.08 149.63 C51.68 107.76, 85.34 66.62, 141.98 0.2 M12.08 149.63 C45.18 110.21, 80.43 70.56, 141.98 0.2 M20.09 152.61 C66.89 100.64, 113.83 46.88, 152.61 0.16 M20.09 152.61 C71.06 93.19, 123.82 32.49, 152.61 0.16 M28.75 154.84 C65.72 112.02, 99.94 71.8, 163.24 0.13 M28.75 154.84 C69.53 107.7, 109.35 60.89, 163.24 0.13 M40.04 154.06 C92.21 92.37, 145.3 30.74, 173.87 0.09 M40.04 154.06 C89.98 98.19, 138.85 40.26, 173.87 0.09 M50.67 154.02 C91.43 110.02, 129.96 64.96, 184.5 0.06 M50.67 154.02 C95.67 103.21, 139.22 51.58, 184.5 0.06 M61.3 153.99 C93.91 118.66, 124.76 84.34, 195.13 0.03 M61.3 153.99 C110.86 96.26, 161.38 37.18, 195.13 0.03 M71.93 153.95 C122.39 94.42, 175.35 31.92, 205.11 0.75 M71.93 153.95 C124.93 94.69, 176.12 35.08, 205.11 0.75 M82.56 153.92 C112.73 119.61, 145.45 84.21, 213.11 3.73 M82.56 153.92 C119.33 110.84, 156.65 67.92, 213.11 3.73 M93.19 153.88 C126.38 113.34, 162.68 75.32, 220.46 7.47 M93.19 153.88 C122.52 120.93, 151.49 87.32, 220.46 7.47 M103.82 153.85 C129.37 124.78, 157.95 92.9, 226.5 12.72 M103.82 153.85 C148.02 102.37, 192.44 51.05, 226.5 12.72 M114.45 153.81 C139.4 123.82, 166.46 91.69, 229.26 21.74 M114.45 153.81 C142.12 121.66, 168.13 89.48, 229.26 21.74 M125.08 153.78 C164.9 107.06, 201.67 62.19, 230.7 32.27 M125.08 153.78 C159.06 112.36, 195.71 72.69, 230.7 32.27 M135.05 154.5 C163.12 123.36, 191.04 91.72, 230.84 44.31 M135.05 154.5 C164.68 120.22, 194.82 85.37, 230.84 44.31 M145.68 154.47 C169.85 125.67, 194.12 98.26, 230.31 57.11 M145.68 154.47 C172.25 124.73, 197.83 92.82, 230.31 57.11 M156.31 154.43 C173.15 133.94, 192.27 111.73, 230.45 69.15 M156.31 154.43 C171.73 137.99, 187.04 120.1, 230.45 69.15 M166.94 154.4 C191.26 127.35, 215.49 100.69, 230.58 81.19 M166.94 154.4 C184.6 132.52, 203.68 112.74, 230.58 81.19 M177.57 154.36 C198.81 127.72, 221.23 106.35, 230.71 93.23 M177.57 154.36 C196.97 131.49, 215.96 109.19, 230.71 93.23 M188.2 154.33 C198.07 144.5, 207.06 133.12, 230.85 105.27 M188.2 154.33 C196.62 144.79, 206.83 132.72, 230.85 105.27 M198.83 154.29 C205.23 143.21, 215.31 134, 230.32 118.07 M198.83 154.29 C208.28 143.83, 216.04 134.4, 230.32 118.07 M210.78 152.75 C219.4 144.36, 225.41 135.06, 230.46 130.11 M210.78 152.75 C217.75 144.97, 224.74 137.2, 230.46 130.11" stroke="#ffc9c9" stroke-width="1" fill="none"></path><path d="M32 0 C89.21 0.8, 143.73 -0.77, 198.18 0 M32 0 C98.74 -1.15, 164.91 -0.96, 198.18 0 M198.18 0 C220.33 -0.76, 228.97 12.39, 230.18 32 M198.18 0 C217.75 -1.5, 230.65 11.25, 230.18 32 M230.18 32 C228.74 59.35, 230.73 83.58, 230.18 122.15 M230.18 32 C229.6 62.68, 229.08 93.19, 230.18 122.15 M230.18 122.15 C229.59 144.38, 218.54 153.16, 198.18 154.15 M230.18 122.15 C231.82 144.13, 219.46 154.95, 198.18 154.15 M198.18 154.15 C139.74 154.91, 81.08 153.11, 32 154.15 M198.18 154.15 C151.67 153.5, 106.42 152.56, 32 154.15 M32 154.15 C8.97 154.17, 1 142.63, 0 122.15 M32 154.15 C12.45 155.48, 1.8 145.28, 0 122.15 M0 122.15 C-1.51 96.72, 0.35 69.64, 0 32 M0 122.15 C-0.03 90.84, -0.49 60.56, 0 32 M0 32 C-0.67 12.43, 10.45 0.85, 32 0 M0 32 C-1.14 12.95, 10.99 -1.61, 32 0" stroke="#1e1e1e" stroke-width="2" fill="none"></path></g><g transform="translate(1638.1763573414535 19.576112660645776) rotate(0 106.68597412109375 67.5)"><text x="106.68597412109375" y="31.536" font-family="Virgil, Segoe UI Emoji" font-size="36px" fill="#1e1e1e" text-anchor="middle" style="white-space: pre;" direction="ltr" dominant-baseline="alphabetic">Github</text><text x="106.68597412109375" y="76.536" font-family="Virgil, Segoe UI Emoji" font-size="36px" fill="#1e1e1e" text-anchor="middle" style="white-space: pre;" direction="ltr" dominant-baseline="alphabetic">Service</text><text x="106.68597412109375" y="121.536" font-family="Virgil, Segoe UI Emoji" font-size="36px" fill="#1e1e1e" text-anchor="middle" style="white-space: pre;" direction="ltr" dominant-baseline="alphabetic">/ DockerHub</text></g><g stroke-linecap="round"><g transform="translate(1746.661997439125 160.50211119816777) rotate(0 6.3472524241169594 484.8606810438034)"><path d="M-0.4 1.17 C1.8 163.1, 11.41 809.27, 13.74 970.76 M1.59 0.74 C3.68 162.43, 11.39 807.98, 13.33 969.18" stroke="#1e1e1e" stroke-width="2" fill="none"></path></g></g><mask></mask><g stroke-linecap="round" transform="translate(1972.0963893212418 61.81101152298925) rotate(0 102.661663175071 50)"><path d="M6 6.54 C6 6.54, 6 6.54, 6 6.54 M6 6.54 C6 6.54, 6 6.54, 6 6.54 M0.88 24.62 C6.36 18.08, 10.28 10.93, 21.88 0.47 M0.88 24.62 C7.24 16.74, 15.05 9.13, 21.88 0.47 M1.02 36.66 C11.55 23.63, 25.45 7.78, 32.51 0.43 M1.02 36.66 C12.12 23.94, 23.45 10.03, 32.51 0.43 M1.15 48.7 C10.9 39.31, 18.33 27.74, 43.14 0.4 M1.15 48.7 C18.3 29.18, 33.91 11.4, 43.14 0.4 M1.28 60.74 C14.76 46.76, 25.48 34.12, 53.77 0.36 M1.28 60.74 C16.63 43.16, 32.81 24.64, 53.77 0.36 M1.42 72.78 C17.91 53.84, 34.38 35.46, 64.4 0.33 M1.42 72.78 C24.1 48.22, 45.57 21.71, 64.4 0.33 M1.55 84.82 C18.03 65.32, 33.63 50.96, 75.03 0.29 M1.55 84.82 C21.32 63.24, 38.51 42.33, 75.03 0.29 M5.62 92.33 C27.04 64.5, 51.47 36.02, 85.66 0.26 M5.62 92.33 C27.9 66.95, 50.13 40.58, 85.66 0.26 M12.31 96.83 C37.61 66.21, 64.6 37.82, 95.63 0.98 M12.31 96.83 C41.32 62.54, 71.79 27.68, 95.63 0.98 M20.97 99.06 C53.39 59.73, 85.88 23.86, 106.26 0.95 M20.97 99.06 C46.27 69.86, 71.17 40.65, 106.26 0.95 M30.29 100.53 C56.63 71.09, 83.62 40.81, 116.89 0.91 M30.29 100.53 C55.91 70.44, 82.58 41.44, 116.89 0.91 M40.92 100.5 C71.87 65.85, 100.69 35.34, 127.52 0.88 M40.92 100.5 C58.68 80.42, 77.98 57.34, 127.52 0.88 M51.55 100.46 C82.06 62.41, 114.48 26.78, 138.15 0.84 M51.55 100.46 C74.25 73.52, 98.76 46.68, 138.15 0.84 M62.18 100.43 C88.12 67.33, 117.49 36.19, 148.78 0.81 M62.18 100.43 C88.23 72.55, 111.84 43.13, 148.78 0.81 M72.81 100.4 C94.99 74.88, 116.42 47.16, 159.41 0.77 M72.81 100.4 C89.95 79.98, 106.59 60.14, 159.41 0.77 M83.44 100.36 C101.51 77.92, 124.61 52.41, 170.04 0.74 M83.44 100.36 C109.22 71.04, 136.35 40.38, 170.04 0.74 M94.07 100.33 C127.2 63.2, 161.44 22.98, 180.67 0.7 M94.07 100.33 C125.82 65.22, 157.44 29.09, 180.67 0.7 M104.7 100.29 C135.07 63.67, 166.53 28.68, 189.99 2.18 M104.7 100.29 C126.62 73.42, 149.25 48, 189.99 2.18 M115.33 100.26 C134.96 76.58, 158.27 48.85, 198 5.16 M115.33 100.26 C141.27 70.2, 167.91 41.39, 198 5.16 M125.96 100.22 C145.92 75.64, 167.27 50.59, 202.72 11.92 M125.96 100.22 C149.21 73.01, 171.9 47.36, 202.72 11.92 M136.59 100.19 C158.5 75.63, 182.57 48.93, 205.48 20.94 M136.59 100.19 C163.42 68.12, 192.06 37.55, 205.48 20.94 M147.22 100.15 C169.17 75.09, 190.66 49.99, 205.61 32.98 M147.22 100.15 C170.3 73.72, 192.73 48.33, 205.61 32.98 M157.85 100.12 C172.98 85.81, 185.06 67.79, 205.75 45.03 M157.85 100.12 C168.37 89, 177.13 76.27, 205.75 45.03 M168.48 100.08 C179.83 85.22, 190.41 74.09, 205.88 57.07 M168.48 100.08 C183.35 83.81, 197.97 67.31, 205.88 57.07 M179.11 100.05 C188.27 88.31, 198.41 77.59, 206.01 69.11 M179.11 100.05 C187.79 88.96, 197.65 77.71, 206.01 69.11 M191.71 97.75 C195.15 93.4, 202.06 85.73, 204.18 83.41 M191.71 97.75 C195.12 93.96, 197.85 91.17, 204.18 83.41" stroke="#ffc9c9" stroke-width="1" fill="none"></path><path d="M25 0 C68.18 0.08, 108.47 0.37, 180.32 0 M25 0 C78.35 1.45, 132.13 -0.06, 180.32 0 M180.32 0 C197.4 0.51, 205.17 7.96, 205.32 25 M180.32 0 C198.82 -1.46, 206.46 9.15, 205.32 25 M205.32 25 C206.1 37.39, 205.59 48.5, 205.32 75 M205.32 25 C204.69 39.04, 205.89 54.36, 205.32 75 M205.32 75 C205.28 92.36, 197.95 99.35, 180.32 100 M205.32 75 C206.1 90.94, 197.22 98.29, 180.32 100 M180.32 100 C144.43 97.97, 113.65 99.32, 25 100 M180.32 100 C136.25 99.59, 91.96 100.59, 25 100 M25 100 C9.9 101.56, -0.08 93.03, 0 75 M25 100 C8.03 98.96, 1.47 92.77, 0 75 M0 75 C-1.96 57.7, -1.51 39.52, 0 25 M0 75 C0.06 61.78, -0.33 48.7, 0 25 M0 25 C0.28 6.93, 6.82 0.28, 25 0 M0 25 C1.18 7.04, 6.93 0.62, 25 0" stroke="#1e1e1e" stroke-width="2" fill="none"></path></g><g transform="translate(1980.942081121801 66.81101152298925) rotate(0 93.81597137451172 45)"><text x="93.81597137451172" y="31.536" font-family="Virgil, Segoe UI Emoji" font-size="36px" fill="#1e1e1e" text-anchor="middle" style="white-space: pre;" direction="ltr" dominant-baseline="alphabetic">Dashboard</text><text x="93.81597137451172" y="76.536" font-family="Virgil, Segoe UI Emoji" font-size="36px" fill="#1e1e1e" text-anchor="middle" style="white-space: pre;" direction="ltr" dominant-baseline="alphabetic">Service</text></g><g stroke-linecap="round"><g transform="translate(2064.6460279732114 152.47221143720526) rotate(0 6.964626626844165 490.8649477997386)"><path d="M1.03 0.57 C3.29 164.06, 12.39 817.57, 14.42 981.27 M0.11 -0.18 C2.18 163.44, 11.13 819.04, 13.73 982.57" stroke="#1e1e1e" stroke-width="2" fill="none"></path></g></g><mask></mask><g stroke-linecap="round" transform="translate(589.2144913418554 1133.2530927121861) rotate(0 130.99631449239405 50)"><path d="M6 6.54 C6 6.54, 6 6.54, 6 6.54 M6 6.54 C6 6.54, 6 6.54, 6 6.54 M3.51 21.6 C6.89 16.39, 10.7 14.06, 17.94 5 M3.51 21.6 C8.98 15.22, 13.72 10.53, 17.94 5 M3.64 33.64 C10.2 26.98, 15.64 20.63, 29.23 4.21 M3.64 33.64 C8.57 27.57, 15.26 20.34, 29.23 4.21 M3.12 46.44 C16.62 34.52, 25.99 19.33, 39.86 4.17 M3.12 46.44 C17.54 31.36, 30.84 14.94, 39.86 4.17 M3.25 58.48 C19.1 36.51, 39.83 16.08, 50.49 4.14 M3.25 58.48 C19.62 38.62, 37.42 18.79, 50.49 4.14 M3.38 70.52 C24.42 45.93, 49.35 18.56, 61.12 4.1 M3.38 70.52 C16.05 57.05, 27.49 43.07, 61.12 4.1 M2.86 83.31 C28.76 55.18, 54.7 22.28, 71.75 4.07 M2.86 83.31 C24.64 56.95, 46.11 32.26, 71.75 4.07 M5.62 92.33 C22.1 71.06, 42.09 49.24, 82.38 4.03 M5.62 92.33 C30.04 63.77, 54.12 36.07, 82.38 4.03 M11 98.34 C42.18 58.92, 76.38 21.48, 93.01 4 M11 98.34 C39.97 63.85, 69.01 29.35, 93.01 4 M18.35 102.08 C47.26 67.04, 78.34 30.65, 103.64 3.96 M18.35 102.08 C36.03 80.99, 55.5 59.98, 103.64 3.96 M28.32 102.8 C53.84 73.65, 77.61 46.93, 114.27 3.93 M28.32 102.8 C53.72 73.89, 79.48 43.7, 114.27 3.93 M38.95 102.76 C69.36 66.35, 102.09 33.2, 124.9 3.9 M38.95 102.76 C58.18 80.32, 76.01 58.72, 124.9 3.9 M49.58 102.73 C77.86 69.71, 105.86 39.75, 135.53 3.86 M49.58 102.73 C82.54 64.38, 113.68 28.09, 135.53 3.86 M60.21 102.69 C87.91 72.42, 117.48 37.66, 146.16 3.83 M60.21 102.69 C87.22 71.86, 114.07 40.65, 146.16 3.83 M70.84 102.66 C93.85 79.16, 113.82 53.58, 156.79 3.79 M70.84 102.66 C100.35 68.46, 129.15 37.04, 156.79 3.79 M81.47 102.62 C100.96 77.33, 124.01 54.8, 167.42 3.76 M81.47 102.62 C101.46 78.65, 122.7 55.34, 167.42 3.76 M92.1 102.59 C108.91 81.5, 129.31 60.93, 178.05 3.72 M92.1 102.59 C122.79 66.53, 152.94 31.3, 178.05 3.72 M102.73 102.56 C125.03 79.01, 143.13 55.84, 188.68 3.69 M102.73 102.56 C125.08 75.56, 148.05 50.76, 188.68 3.69 M113.36 102.52 C137.07 73.55, 161.37 46.66, 199.31 3.65 M113.36 102.52 C146.45 65.04, 177.98 28.21, 199.31 3.65 M123.99 102.49 C147.89 75.93, 169.54 48.51, 209.94 3.62 M123.99 102.49 C155.68 66.69, 187.02 31.65, 209.94 3.62 M133.97 103.21 C161.44 71.25, 186 43.47, 220.57 3.59 M133.97 103.21 C160.32 72.39, 186.66 41.69, 220.57 3.59 M144.6 103.17 C165.63 80.05, 184.96 55.98, 231.2 3.55 M144.6 103.17 C166.97 79.02, 189.47 52.98, 231.2 3.55 M155.23 103.14 C178.45 80.49, 199.16 54.16, 241.17 4.27 M155.23 103.14 C175.88 79.9, 194.35 56.52, 241.17 4.27 M165.86 103.1 C195.51 70.56, 224.25 37.51, 252.46 3.48 M165.86 103.1 C199.52 63.82, 232.96 25.14, 252.46 3.48 M176.49 103.07 C196.64 80.32, 213.17 59.92, 257.84 9.49 M176.49 103.07 C195.62 80.38, 214.42 59.65, 257.84 9.49 M187.12 103.03 C207.04 82.67, 224.5 60.59, 263.88 14.73 M187.12 103.03 C211.96 74.54, 237.26 47, 263.88 14.73 M197.75 103 C217.98 79.05, 241.94 52.6, 266.64 23.76 M197.75 103 C220.61 76.97, 242.79 49.67, 266.64 23.76 M208.38 102.97 C227.24 81.53, 247.43 55.08, 266.77 35.8 M208.38 102.97 C230.06 78.97, 251.22 53.33, 266.77 35.8 M219.01 102.93 C236.03 82.18, 254.76 63.77, 266.9 47.84 M219.01 102.93 C237.2 82.64, 254.49 63.06, 266.9 47.84 M229.64 102.9 C242.21 90.38, 252.27 73.83, 267.03 59.88 M229.64 102.9 C241.92 90.19, 253.95 76.09, 267.03 59.88 M240.27 102.86 C247.35 94.94, 255.1 87.14, 263.23 76.45 M240.27 102.86 C247.07 93.66, 255.71 85.16, 263.23 76.45" stroke="#ffc9c9" stroke-width="1" fill="none"></path><path d="M25 0 C106.15 -1.83, 190.16 -2.12, 236.99 0 M25 0 C74.68 -0.63, 125.19 -1.03, 236.99 0 M236.99 0 C254.64 0.71, 260.85 9.13, 261.99 25 M236.99 0 C251.84 0.66, 262.29 8.42, 261.99 25 M261.99 25 C262.84 37.11, 260.95 52.59, 261.99 75 M261.99 25 C262.46 41.07, 262.32 57.48, 261.99 75 M261.99 75 C262.19 90.18, 252.06 99.53, 236.99 100 M261.99 75 C260.69 89.65, 252.34 101.85, 236.99 100 M236.99 100 C171.25 99.3, 104.71 99.79, 25 100 M236.99 100 C161.12 102.06, 85.19 101.06, 25 100 M25 100 C9.61 100.96, 0.9 92.47, 0 75 M25 100 C8.34 97.97, -0.05 90.16, 0 75 M0 75 C1.9 62.23, 0.98 48.9, 0 25 M0 75 C-0.83 55.18, 0.44 34.51, 0 25 M0 25 C-1.22 8.88, 7.39 -0.19, 25 0 M0 25 C0.54 7.93, 10.58 1.74, 25 0" stroke="#1e1e1e" stroke-width="2" fill="none"></path></g><g transform="translate(600.0608424553432 1160.7530927121861) rotate(0 120.14996337890625 22.5)"><text x="120.14996337890625" y="31.536" font-family="Virgil, Segoe UI Emoji" font-size="36px" fill="#1e1e1e" text-anchor="middle" style="white-space: pre;" direction="ltr" dominant-baseline="alphabetic">API Gateway</text></g><g stroke-linecap="round" transform="translate(951.9843798894678 1133.6566052629887) rotate(0 124.66520257030902 50)"><path d="M6 6.54 C6 6.54, 6 6.54, 6 6.54 M6 6.54 C6 6.54, 6 6.54, 6 6.54 M0.88 24.62 C6.84 20.22, 11 14.1, 21.88 0.47 M0.88 24.62 C4.98 19.43, 10.86 13.69, 21.88 0.47 M1.02 36.66 C8.83 23.95, 19.95 12.93, 32.51 0.43 M1.02 36.66 C10.84 26.57, 20.73 15.39, 32.51 0.43 M1.15 48.7 C19.39 28.06, 35.65 11.22, 43.14 0.4 M1.15 48.7 C17.94 30.24, 33.42 10.72, 43.14 0.4 M1.28 60.74 C14.2 46.68, 25.97 31.97, 53.77 0.36 M1.28 60.74 C16.72 44.73, 30.8 26.68, 53.77 0.36 M1.42 72.78 C24.43 41.96, 50.33 14.69, 64.4 0.33 M1.42 72.78 C23.84 47.94, 43.63 23.99, 64.4 0.33 M1.55 84.82 C30.18 53.01, 59.46 20.94, 75.03 0.29 M1.55 84.82 C16.7 67.07, 33.46 48.39, 75.03 0.29 M5.62 92.33 C28.33 67.29, 50.74 41.43, 85.66 0.26 M5.62 92.33 C26.49 70.29, 46.26 46.38, 85.66 0.26 M11.66 97.58 C32.37 76.99, 50.77 52.54, 95.63 0.98 M11.66 97.58 C34.26 73.52, 55.63 47.89, 95.63 0.98 M20.32 99.81 C48.78 66.23, 78.28 30.67, 106.26 0.95 M20.32 99.81 C43.48 73, 66.5 46.55, 106.26 0.95 M30.29 100.53 C54.31 73.52, 76.57 44.89, 116.89 0.91 M30.29 100.53 C63.89 62.04, 95.46 25.54, 116.89 0.91 M40.92 100.5 C56.43 81.21, 75.4 60.86, 127.52 0.88 M40.92 100.5 C60.08 79.28, 79.01 58.31, 127.52 0.88 M51.55 100.46 C74.92 74.85, 97.61 50.66, 138.15 0.84 M51.55 100.46 C74.08 74.59, 95.61 49.14, 138.15 0.84 M62.18 100.43 C93.61 63.43, 125.47 27.42, 148.78 0.81 M62.18 100.43 C85.41 72.46, 111 46.34, 148.78 0.81 M72.81 100.4 C105.03 62.72, 137.53 28.2, 159.41 0.77 M72.81 100.4 C91.28 77.32, 111.33 53.9, 159.41 0.77 M83.44 100.36 C104.59 75.83, 128.7 48.45, 170.04 0.74 M83.44 100.36 C110.72 67.4, 139.37 33.6, 170.04 0.74 M94.07 100.33 C117.81 74.94, 141.28 47.62, 180.67 0.7 M94.07 100.33 C122.69 66.43, 152.78 34.58, 180.67 0.7 M104.7 100.29 C135.1 63.74, 168.4 29.19, 191.3 0.67 M104.7 100.29 C122.2 79.32, 140.28 57.49, 191.3 0.67 M115.33 100.26 C137.03 76.99, 155.18 56.07, 201.93 0.64 M115.33 100.26 C135.68 76.8, 156.45 53.33, 201.93 0.64 M125.96 100.22 C152.39 72.57, 174.6 44.81, 212.56 0.6 M125.96 100.22 C147.83 74.85, 169.42 48.83, 212.56 0.6 M136.59 100.19 C156.13 79.06, 176.14 56.46, 223.19 0.57 M136.59 100.19 C167.03 65.05, 197.65 29.17, 223.19 0.57 M147.22 100.15 C175.9 66.03, 204.51 33.45, 233.17 1.29 M147.22 100.15 C177.19 63.41, 209.7 29.16, 233.17 1.29 M157.85 100.12 C188.92 62.39, 224.06 25.8, 240.52 5.03 M157.85 100.12 C183.83 72.62, 208.34 43.82, 240.52 5.03 M168.48 100.08 C195.42 70.98, 219.6 40.59, 246.55 10.27 M168.48 100.08 C191.95 72.97, 216.27 46.28, 246.55 10.27 M179.11 100.05 C194.51 82.58, 212.77 63.56, 249.31 19.3 M179.11 100.05 C194.45 80.22, 210.79 62.29, 249.31 19.3 M189.74 100.02 C210.8 75.23, 228.71 52.03, 249.44 31.34 M189.74 100.02 C203.8 83.67, 218.12 67.07, 249.44 31.34 M200.37 99.98 C220.28 78.81, 238.63 56.25, 249.58 43.38 M200.37 99.98 C217.11 82.38, 233.84 62.94, 249.58 43.38 M211 99.95 C227.49 83.89, 242.64 66.93, 249.71 55.42 M211 99.95 C225.92 82.55, 239.03 66.12, 249.71 55.42 M221.63 99.91 C229.25 90.99, 232.38 85.01, 249.84 67.46 M221.63 99.91 C230.35 89.6, 237.94 80.86, 249.84 67.46 M233.58 98.37 C239.34 90.92, 244.11 86.86, 248.67 81.01 M233.58 98.37 C238.64 92.65, 244.64 86.44, 248.67 81.01" stroke="#ffc9c9" stroke-width="1" fill="none"></path><path d="M25 0 C71.42 1.94, 120.96 1.38, 224.33 0 M25 0 C81.62 1.62, 136.67 1.66, 224.33 0 M224.33 0 C239.42 0.57, 249.59 8.41, 249.33 25 M224.33 0 C240.11 -0.21, 248.65 9.36, 249.33 25 M249.33 25 C249.64 37.53, 249.77 51.11, 249.33 75 M249.33 25 C249.6 37.63, 248.7 51.52, 249.33 75 M249.33 75 C248.19 89.91, 239.85 101.61, 224.33 100 M249.33 75 C249.57 91.37, 239.05 100.02, 224.33 100 M224.33 100 C155.71 103.11, 86.34 101.47, 25 100 M224.33 100 C151.61 99.58, 78.05 99.5, 25 100 M25 100 C8.34 98.24, -0.05 90.36, 0 75 M25 100 C7.21 99.38, -0.77 93.7, 0 75 M0 75 C1.77 60.81, -1.61 44.54, 0 25 M0 75 C-0.86 59.58, -0.73 43.52, 0 25 M0 25 C0.47 7.98, 10.29 1.52, 25 0 M0 25 C1.89 9.98, 10.44 0.06, 25 0" stroke="#1e1e1e" stroke-width="2" fill="none"></path></g><g transform="translate(965.7876210950308 1161.1566052629887) rotate(0 110.8619613647461 22.5)"><text x="110.8619613647461" y="31.536" font-family="Virgil, Segoe UI Emoji" font-size="36px" fill="#1e1e1e" text-anchor="middle" style="white-space: pre;" direction="ltr" dominant-baseline="alphabetic">Auth Service</text></g><g stroke-linecap="round" transform="translate(1291.6047533975636 1134.1689260352327) rotate(0 144.5260903207884 63.38465147738066)"><path d="M7.78 8.09 C7.78 8.09, 7.78 8.09, 7.78 8.09 M7.78 8.09 C7.78 8.09, 7.78 8.09, 7.78 8.09 M1.35 27.68 C8.67 18.39, 19.37 6.23, 24.31 1.26 M1.35 27.68 C9.47 18.46, 17.78 8.02, 24.31 1.26 M1.49 39.72 C9.45 32.31, 15.11 22.78, 35.6 0.47 M1.49 39.72 C15.6 23.8, 28.15 9.54, 35.6 0.47 M0.96 52.51 C12.81 40.48, 21.87 29.76, 46.23 0.44 M0.96 52.51 C14.1 37.42, 28.07 21.46, 46.23 0.44 M1.1 64.55 C15.66 47.83, 30.14 31.73, 56.86 0.4 M1.1 64.55 C21.29 42.84, 40.24 19.23, 56.86 0.4 M1.23 76.59 C16.15 58.82, 30.23 46.22, 67.49 0.37 M1.23 76.59 C19.14 57.09, 34.5 38.29, 67.49 0.37 M1.36 88.63 C21.84 61.93, 45.29 34.57, 78.12 0.33 M1.36 88.63 C22.72 64.3, 44.02 39.01, 78.12 0.33 M0.84 101.43 C27.59 69.13, 56.04 39.06, 88.75 0.3 M0.84 101.43 C31.48 65.23, 63.63 28.44, 88.75 0.3 M2.94 111.21 C39.71 66.87, 76.54 26.02, 99.38 0.26 M2.94 111.21 C31.49 78.3, 59.71 45.27, 99.38 0.26 M7.67 117.97 C38.9 83.18, 70.66 47.42, 110.01 0.23 M7.67 117.97 C37.99 82.48, 69.32 48.12, 110.01 0.23 M14.36 122.46 C52.02 80.33, 87.41 42.26, 120.64 0.2 M14.36 122.46 C36.36 97.6, 59.87 69.67, 120.64 0.2 M21.71 126.2 C60.75 78.22, 101.63 32.87, 131.27 0.16 M21.71 126.2 C50.54 92, 81.32 57.96, 131.27 0.16 M31.68 126.92 C64.93 84.88, 101.88 45.03, 141.9 0.13 M31.68 126.92 C64.65 91.23, 95.07 53.96, 141.9 0.13 M42.31 126.88 C70.66 94.26, 98.26 59.44, 152.53 0.09 M42.31 126.88 C63.95 100.87, 85.33 75.56, 152.53 0.09 M52.94 126.85 C76.34 97.98, 104.97 66.1, 163.16 0.06 M52.94 126.85 C85.86 89.53, 120.13 50.67, 163.16 0.06 M63.57 126.81 C105.58 79.39, 148.79 28.85, 173.79 0.02 M63.57 126.81 C104.07 81.96, 144.25 35.99, 173.79 0.02 M74.2 126.78 C113.27 79.83, 153.66 34.58, 184.42 -0.01 M74.2 126.78 C102.37 92.25, 131.53 59.33, 184.42 -0.01 M84.83 126.75 C111.58 94.55, 142.28 58.3, 195.05 -0.05 M84.83 126.75 C119.66 86.79, 154.97 48.01, 195.05 -0.05 M95.46 126.71 C124.65 91.33, 155.18 55.71, 205.68 -0.08 M95.46 126.71 C128.9 87.76, 161.67 50.52, 205.68 -0.08 M106.09 126.68 C141.64 86.54, 179.01 44.53, 216.31 -0.11 M106.09 126.68 C149.51 75.64, 194.38 26.41, 216.31 -0.11 M116.72 126.64 C157.17 79.75, 197.54 32.92, 226.94 -0.15 M116.72 126.64 C159.95 77.34, 202.13 29.22, 226.94 -0.15 M127.35 126.61 C160.52 91.95, 190.19 53.68, 237.57 -0.18 M127.35 126.61 C150.26 100.19, 171.93 72.6, 237.57 -0.18 M137.98 126.57 C171.16 85.69, 203.86 49.1, 247.55 0.54 M137.98 126.57 C180.98 77.48, 223.61 28.75, 247.55 0.54 M148.61 126.54 C185.73 82.45, 224 39.39, 258.18 0.5 M148.61 126.54 C185.92 81.73, 224.4 37.56, 258.18 0.5 M159.24 126.5 C198.73 79.65, 242.05 30.12, 267.49 1.98 M159.24 126.5 C185.95 96.4, 211.29 67.62, 267.49 1.98 M169.87 126.47 C194.49 98.35, 221.34 70.37, 275.5 4.96 M169.87 126.47 C198.87 94.22, 227.23 61.25, 275.5 4.96 M179.85 127.19 C217.1 84, 251.82 43.5, 282.19 9.46 M179.85 127.19 C216.98 84.45, 252.47 42.13, 282.19 9.46 M190.48 127.16 C225.54 88.56, 257.26 48.96, 286.92 16.21 M190.48 127.16 C213.11 102.28, 236.07 76.8, 286.92 16.21 M201.11 127.12 C220.75 103.83, 241.77 84.15, 289.02 25.99 M201.11 127.12 C223.31 101.76, 243.17 78.32, 289.02 25.99 M211.74 127.09 C231.1 107.67, 247.66 84.88, 289.15 38.03 M211.74 127.09 C237.14 97.8, 263.05 67.38, 289.15 38.03 M222.37 127.05 C236.41 110.5, 251.97 93.78, 289.29 50.07 M222.37 127.05 C239.79 107.14, 258.32 87, 289.29 50.07 M233 127.02 C245.85 112.06, 262.97 92.81, 289.42 62.11 M233 127.02 C248.72 109.08, 264.04 90.98, 289.42 62.11 M243.63 126.98 C255.49 113.66, 265.98 99.64, 289.55 74.15 M243.63 126.98 C255.06 113.9, 264.26 102.09, 289.55 74.15 M254.26 126.95 C266.63 111.63, 277.85 98.26, 289.03 86.95 M254.26 126.95 C263.44 117.7, 271.64 107.77, 289.03 86.95 M265.55 126.16 C271.48 117.75, 278.96 108.63, 289.16 98.99 M265.55 126.16 C272.75 117.38, 281.29 109.56, 289.16 98.99" stroke="#ffc9c9" stroke-width="1" fill="none"></path><path d="M31.69 0 C103.73 1.51, 175.32 0.99, 257.36 0 M31.69 0 C106.77 -0.53, 183.31 -0.74, 257.36 0 M257.36 0 C277.72 -0.18, 288.46 11.46, 289.05 31.69 M257.36 0 C277.37 -1.14, 290.69 11.21, 289.05 31.69 M289.05 31.69 C288.62 51.24, 288.64 69.63, 289.05 95.08 M289.05 31.69 C287.98 45.11, 287.97 61.08, 289.05 95.08 M289.05 95.08 C289.26 115.94, 276.79 126.79, 257.36 126.77 M289.05 95.08 C290.2 115.22, 280.27 128.1, 257.36 126.77 M257.36 126.77 C173.16 126.47, 85.86 127.79, 31.69 126.77 M257.36 126.77 C178.84 126.79, 100.3 126.98, 31.69 126.77 M31.69 126.77 C9.59 126.23, -0.67 117.97, 0 95.08 M31.69 126.77 C10.32 127.74, -1.14 118.49, 0 95.08 M0 95.08 C0.72 76.19, -0.68 54.04, 0 31.69 M0 95.08 C0.54 74.16, 1.28 54.36, 0 31.69 M0 31.69 C1.64 12, 12.4 0.05, 31.69 0 M0 31.69 C-0.09 9.07, 12.09 1.68, 31.69 0" stroke="#1e1e1e" stroke-width="2" fill="none"></path></g><g transform="translate(1331.4068904712817 1152.5535775126134) rotate(0 104.72395324707031 45)"><text x="104.72395324707031" y="31.536" font-family="Virgil, Segoe UI Emoji" font-size="36px" fill="#1e1e1e" text-anchor="middle" style="white-space: pre;" direction="ltr" dominant-baseline="alphabetic">Deployment </text><text x="104.72395324707031" y="76.536" font-family="Virgil, Segoe UI Emoji" font-size="36px" fill="#1e1e1e" text-anchor="middle" style="white-space: pre;" direction="ltr" dominant-baseline="alphabetic">Service</text></g><g stroke-linecap="round" transform="translate(1979.0731213246079 1140.1531573309026) rotate(0 102.661663175071 50)"><path d="M6 6.54 C6 6.54, 6 6.54, 6 6.54 M6 6.54 C6 6.54, 6 6.54, 6 6.54 M0.88 24.62 C9 17.09, 15.93 8.49, 21.88 0.47 M0.88 24.62 C6.83 16.87, 13.64 9.36, 21.88 0.47 M1.02 36.66 C14.45 24.25, 25.93 12.48, 32.51 0.43 M1.02 36.66 C8.73 27.18, 18.38 17.73, 32.51 0.43 M1.15 48.7 C14.31 33.72, 25.3 16.93, 43.14 0.4 M1.15 48.7 C15.95 31.93, 30.28 14.33, 43.14 0.4 M1.28 60.74 C19.6 41.57, 34.09 23.16, 53.77 0.36 M1.28 60.74 C17.46 40.83, 35.53 21.67, 53.77 0.36 M1.42 72.78 C13.29 56.43, 26.74 43.78, 64.4 0.33 M1.42 72.78 C18.42 54.41, 35.06 33.71, 64.4 0.33 M1.55 84.82 C22.62 62.13, 42.23 36.94, 75.03 0.29 M1.55 84.82 C26.34 57.21, 50.37 29.06, 75.03 0.29 M5.62 92.33 C30.98 65.83, 52.77 35.43, 85.66 0.26 M5.62 92.33 C34.63 60.01, 61.4 28.01, 85.66 0.26 M12.31 96.83 C33.53 73.73, 52.19 49.94, 95.63 0.98 M12.31 96.83 C30.67 75.79, 48 55.21, 95.63 0.98 M20.97 99.06 C46.14 69.44, 71.98 40.29, 106.26 0.95 M20.97 99.06 C42.51 73.2, 63.65 49.26, 106.26 0.95 M30.29 100.53 C46.29 78.68, 65.77 55.99, 116.89 0.91 M30.29 100.53 C65.57 61.25, 100.23 21.09, 116.89 0.91 M40.92 100.5 C64.26 74.5, 88.53 45.84, 127.52 0.88 M40.92 100.5 C70.24 66.79, 100.53 31.38, 127.52 0.88 M51.55 100.46 C75.46 71.36, 99.96 45.31, 138.15 0.84 M51.55 100.46 C84.53 62.8, 117.63 24.97, 138.15 0.84 M62.18 100.43 C89.36 70.21, 120.83 37.06, 148.78 0.81 M62.18 100.43 C88.72 69.73, 116.76 37.13, 148.78 0.81 M72.81 100.4 C103.14 65.14, 132.29 28.76, 159.41 0.77 M72.81 100.4 C98.98 71.41, 124.03 41.55, 159.41 0.77 M83.44 100.36 C112.5 66.64, 139.16 34.28, 170.04 0.74 M83.44 100.36 C115.57 64.42, 146.68 27.76, 170.04 0.74 M94.07 100.33 C112.83 79.39, 135.11 55.23, 180.67 0.7 M94.07 100.33 C112.99 78.53, 133.37 53.67, 180.67 0.7 M104.7 100.29 C138.88 60.47, 171.56 21.75, 189.99 2.18 M104.7 100.29 C126.89 73.83, 150.2 47.61, 189.99 2.18 M115.33 100.26 C141.35 70.53, 167.71 41.46, 198 5.16 M115.33 100.26 C138.37 73.42, 161.06 48.06, 198 5.16 M125.96 100.22 C155.72 65.97, 183.72 33.21, 202.72 11.92 M125.96 100.22 C145.5 78.28, 164.65 55.66, 202.72 11.92 M136.59 100.19 C156.77 77.26, 174.82 57.41, 205.48 20.94 M136.59 100.19 C152.1 81.33, 168.58 64.05, 205.48 20.94 M147.22 100.15 C166.84 77.32, 191.53 53.23, 205.61 32.98 M147.22 100.15 C168.65 76.48, 190.61 51.68, 205.61 32.98 M157.85 100.12 C170.91 86.99, 181.82 75.12, 205.75 45.03 M157.85 100.12 C175.9 79.28, 193.36 58.61, 205.75 45.03 M168.48 100.08 C178.13 90.04, 188.07 78.49, 205.88 57.07 M168.48 100.08 C180.06 88.13, 190.86 74.93, 205.88 57.07 M179.11 100.05 C187.43 87.81, 199.01 78.59, 206.01 69.11 M179.11 100.05 C185.42 90.94, 192.53 83.16, 206.01 69.11 M191.71 97.75 C194.8 94.89, 197.06 91.11, 204.18 83.41 M191.71 97.75 C195.96 93.28, 199.52 89.35, 204.18 83.41" stroke="#ffc9c9" stroke-width="1" fill="none"></path><path d="M25 0 C84.66 -1.91, 143.69 -2.34, 180.32 0 M25 0 C75.68 -0.15, 126.83 0.39, 180.32 0 M180.32 0 C196.02 -0.99, 206.75 8.89, 205.32 25 M180.32 0 C196.94 0.79, 206.42 7.59, 205.32 25 M205.32 25 C203.68 40.08, 204.69 57.24, 205.32 75 M205.32 25 C205.14 35.48, 204.19 46.24, 205.32 75 M205.32 75 C206.32 90.81, 198.54 101.16, 180.32 100 M205.32 75 C207.12 93.47, 196.9 101.57, 180.32 100 M180.32 100 C136.7 101.89, 91.96 101, 25 100 M180.32 100 C146.91 98.71, 114.15 99.87, 25 100 M25 100 C8.12 100.85, -0.99 93.65, 0 75 M25 100 C8.66 98.39, -1.74 91.99, 0 75 M0 75 C0.82 56.5, 0.09 40.36, 0 25 M0 75 C0.33 61.59, 0.43 46.78, 0 25 M0 25 C-0.08 7.03, 9.66 1.46, 25 0 M0 25 C-1.77 7.44, 7.89 -0.29, 25 0" stroke="#1e1e1e" stroke-width="2" fill="none"></path></g><g transform="translate(1987.9188131251672 1145.1531573309026) rotate(0 93.81597137451172 45)"><text x="93.81597137451172" y="31.536" font-family="Virgil, Segoe UI Emoji" font-size="36px" fill="#1e1e1e" text-anchor="middle" style="white-space: pre;" direction="ltr" dominant-baseline="alphabetic">Dashboard</text><text x="93.81597137451172" y="76.536" font-family="Virgil, Segoe UI Emoji" font-size="36px" fill="#1e1e1e" text-anchor="middle" style="white-space: pre;" direction="ltr" dominant-baseline="alphabetic">Service</text></g><g mask="url(#mask-u_tKOoqgmFnEIC1_xodtF)" stroke-linecap="round"><g transform="translate(273.0462672863793 222.02163469345624) rotate(0 217.83221542500542 1.246853781978416)"><path d="M-0.95 0.34 C71.8 0.69, 363.13 2.2, 435.82 2.54 M0.76 -0.52 C73.42 -0.01, 362.72 3.4, 434.96 4.1" stroke="#1e1e1e" stroke-width="2" fill="none"></path></g><g transform="translate(273.0462672863793 222.02163469345624) rotate(0 217.83221542500542 1.246853781978416)"><path d="M411.37 12.39 C417.64 10.83, 422.86 7.79, 434.96 4.1 M411.37 12.39 C417.77 9.38, 425.82 7.74, 434.96 4.1" stroke="#1e1e1e" stroke-width="2" fill="none"></path></g><g transform="translate(273.0462672863793 222.02163469345624) rotate(0 217.83221542500542 1.246853781978416)"><path d="M411.56 -4.71 C417.84 -2.12, 423.02 -1.02, 434.96 4.1 M411.56 -4.71 C417.85 -2.75, 425.85 0.59, 434.96 4.1" stroke="#1e1e1e" stroke-width="2" fill="none"></path></g></g><mask id="mask-u_tKOoqgmFnEIC1_xodtF"><rect x="0" y="0" fill="#fff" width="808.7106981363902" height="324.51534225741307"></rect><rect x="314.2625616908769" y="200.76848847543465" fill="#000" width="353.2318420410156" height="45" opacity="1"></rect></mask><g transform="translate(314.2625616908769 200.76848847543465) rotate(0 176.22058208100498 23.041838822364806)"><text x="176.6159210205078" y="31.536" font-family="Virgil, Segoe UI Emoji" font-size="36px" fill="#1e1e1e" text-anchor="middle" style="white-space: pre;" direction="ltr" dominant-baseline="alphabetic">Request Deployment</text></g><g mask="url(#mask-cpFxK4TUDTMFhV2X3AIC1)" stroke-linecap="round"><g transform="translate(704.3608328387438 310.89123888211043) rotate(0 184.45365722265592 -0.9079032393046873)"><path d="M-0.46 -0.11 C60.94 -0.33, 307.09 -0.9, 368.55 -1.28 M1.5 -1.21 C62.7 -1.8, 306.46 -3.09, 367.42 -3.12" stroke="#1e1e1e" stroke-width="2" fill="none"></path></g><g transform="translate(704.3608328387438 310.89123888211043) rotate(0 184.45365722265592 -0.9079032393046873)"><path d="M343.96 5.51 C351.11 2.3, 359.54 -0.78, 367.42 -3.12 M343.96 5.51 C349.75 3.62, 356.12 0.8, 367.42 -3.12" stroke="#1e1e1e" stroke-width="2" fill="none"></path></g><g transform="translate(704.3608328387438 310.89123888211043) rotate(0 184.45365722265592 -0.9079032393046873)"><path d="M343.9 -11.59 C351.08 -9.44, 359.52 -7.17, 367.42 -3.12 M343.9 -11.59 C349.83 -9.19, 356.22 -7.74, 367.42 -3.12" stroke="#1e1e1e" stroke-width="2" fill="none"></path></g></g><mask id="mask-cpFxK4TUDTMFhV2X3AIC1"><rect x="0" y="0" fill="#fff" width="1173.2681472840557" height="412.7070453607198"></rect><rect x="769.8705432230208" y="287.48333564280574" fill="#000" width="237.8878936767578" height="45" opacity="1"></rect></mask><g transform="translate(769.8705432230208 287.48333564280574) rotate(0 118.53689937703314 21.791043624021107)"><text x="118.9439468383789" y="31.536" font-family="Virgil, Segoe UI Emoji" font-size="36px" fill="#1e1e1e" text-anchor="middle" style="white-space: pre;" direction="ltr" dominant-baseline="alphabetic">validate user</text></g><g mask="url(#mask-CS_9zvt8nH1xQJ8c202yz)" stroke-linecap="round"><g transform="translate(1074.28837371934 368.41481862607407) rotate(0 -186.5172937608861 -0.2374876557812513)"><path d="M-0.58 -0.6 C-62.55 -0.71, -310.1 -0.23, -372.18 -0.14 M1.31 1.71 C-60.71 1.17, -310.15 -1.44, -372.68 -2.09" stroke="#1e1e1e" stroke-width="2" fill="none"></path></g><g transform="translate(1074.28837371934 368.41481862607407) rotate(0 -186.5172937608861 -0.2374876557812513)"><path d="M-349.1 -10.39 C-356.43 -6.84, -361.26 -6.06, -372.68 -2.09 M-349.1 -10.39 C-356.61 -8, -364.74 -5.66, -372.68 -2.09" stroke="#1e1e1e" stroke-width="2" fill="none"></path></g><g transform="translate(1074.28837371934 368.41481862607407) rotate(0 -186.5172937608861 -0.2374876557812513)"><path d="M-349.28 6.71 C-356.64 5.64, -361.42 1.79, -372.68 -2.09 M-349.28 6.71 C-356.81 3.38, -364.88 0, -372.68 -2.09" stroke="#1e1e1e" stroke-width="2" fill="none"></path></g></g><mask id="mask-CS_9zvt8nH1xQJ8c202yz"><rect x="0" y="0" fill="#fff" width="1547.3229612411121" height="468.88979393763657"></rect><rect x="790.2651214013249" y="345.6773309702928" fill="#000" width="195.0119171142578" height="45" opacity="1"></rect></mask><g transform="translate(790.2651214013249 345.6773309702928) rotate(0 98.34019024491312 22.54780103087424)"><text x="97.5059585571289" y="31.536" font-family="Virgil, Segoe UI Emoji" font-size="36px" fill="#1e1e1e" text-anchor="middle" style="white-space: pre;" direction="ltr" dominant-baseline="alphabetic">val.. result</text></g><g stroke-linecap="round" transform="translate(14.281738708008277 391.19023649172823) rotate(0 1058.6958795394705 333.47487735937955)"><path d="M32 0 C794.47 0.57, 1556.12 0.46, 2085.39 0 M32 0 C583.11 6.03, 1134.63 5.77, 2085.39 0 M2085.39 0 C2105.58 1.61, 2117.6 10.41, 2117.39 32 M2085.39 0 C2104.78 0.02, 2118.54 9.68, 2117.39 32 M2117.39 32 C2119.41 259.68, 2119.33 487.31, 2117.39 634.95 M2117.39 32 C2119.11 185.91, 2118.93 339.15, 2117.39 634.95 M2117.39 634.95 C2117.34 654.98, 2105.75 666.41, 2085.39 666.95 M2117.39 634.95 C2116.63 658.32, 2106.48 667.92, 2085.39 666.95 M2085.39 666.95 C1570.43 667.5, 1056.71 668.52, 32 666.95 M2085.39 666.95 C1584.72 669.14, 1084.53 669.11, 32 666.95 M32 666.95 C12.62 668.46, 1.64 657.72, 0 634.95 M32 666.95 C12.77 667.01, -0.09 654.79, 0 634.95 M0 634.95 C-2.07 413.88, -1.86 193.09, 0 32 M0 634.95 C2.06 461.81, 1.92 288.44, 0 32 M0 32 C0.18 11.26, 11.56 1.52, 32 0 M0 32 C-0.06 12.11, 9.14 0.92, 32 0" stroke="#1e1e1e" stroke-width="2" fill="none"></path></g><g stroke-linecap="round" transform="translate(12.223824698917895 391.10146373055204) rotate(0 111.0184081021816 27.710387195516773)"><path d="M3.69 3.21 C3.69 3.21, 3.69 3.21, 3.69 3.21 M3.69 3.21 C3.69 3.21, 3.69 3.21, 3.69 3.21 M3.17 16 C6.61 11.53, 12.73 4.98, 15.63 1.66 M3.17 16 C7.59 10.97, 12.59 5.89, 15.63 1.66 M3.3 28.04 C11.88 18.45, 19.32 10.87, 26.26 1.63 M3.3 28.04 C11.58 18.44, 20.17 10.48, 26.26 1.63 M3.43 40.08 C15.76 27.44, 24.83 11.64, 36.89 1.59 M3.43 40.08 C11.14 30.51, 21.43 19.78, 36.89 1.59 M4.88 50.61 C15.39 36.23, 27.55 24.66, 47.52 1.56 M4.88 50.61 C20.8 31.86, 36.41 13.76, 47.52 1.56 M10.91 55.86 C27.98 35.83, 43.93 19.18, 58.15 1.52 M10.91 55.86 C25.28 39.18, 40.79 23.36, 58.15 1.52 M21.54 55.83 C40.84 33.93, 59.41 16.01, 68.78 1.49 M21.54 55.83 C34.48 39.68, 49.17 24.87, 68.78 1.49 M32.17 55.79 C47.64 36.4, 64.18 17.55, 79.41 1.46 M32.17 55.79 C43.4 43.63, 54.11 31.12, 79.41 1.46 M42.8 55.76 C54.7 42.62, 68.51 26.98, 90.04 1.42 M42.8 55.76 C53.62 42.91, 66.45 28.22, 90.04 1.42 M53.43 55.73 C69.08 40.32, 79.07 26.4, 100.67 1.39 M53.43 55.73 C65.27 41.02, 78.42 26.8, 100.67 1.39 M64.06 55.69 C81.3 37.81, 98.49 18.31, 111.3 1.35 M64.06 55.69 C82.06 34.77, 101.15 12.82, 111.3 1.35 M74.69 55.66 C88.57 39.84, 99.49 26.33, 121.28 2.07 M74.69 55.66 C89 38.77, 102.21 22.44, 121.28 2.07 M85.32 55.62 C103.62 33.95, 122.37 11.76, 131.91 2.04 M85.32 55.62 C103.08 36.68, 119.34 16.07, 131.91 2.04 M95.96 55.59 C110.18 41.06, 122.81 25.71, 142.54 2 M95.96 55.59 C111.84 38.55, 126.18 20.35, 142.54 2 M106.59 55.55 C118.83 43.14, 129.54 32.13, 153.17 1.97 M106.59 55.55 C123.37 35.98, 141 14.62, 153.17 1.97 M117.22 55.52 C133.89 35.83, 152.75 12.38, 163.8 1.93 M117.22 55.52 C136.4 34.62, 153.55 14.09, 163.8 1.93 M127.85 55.48 C138.13 43.13, 151.23 30.28, 174.43 1.9 M127.85 55.48 C141.02 39.82, 154.08 24.81, 174.43 1.9 M138.48 55.45 C150.24 39.9, 164.72 26.98, 185.06 1.86 M138.48 55.45 C149.65 43.73, 159.88 31.68, 185.06 1.86 M149.11 55.41 C158.25 45.34, 169.77 33.07, 195.69 1.83 M149.11 55.41 C165.75 36.28, 182.42 16.89, 195.69 1.83 M159.08 56.13 C168.57 44.44, 179.94 30.37, 206.32 1.8 M159.08 56.13 C170.86 42.85, 180.83 29.12, 206.32 1.8 M169.71 56.1 C188.22 35.02, 203.21 15.22, 216.95 1.76 M169.71 56.1 C184.53 37.34, 201.48 20.32, 216.95 1.76 M180.34 56.07 C193.28 43.08, 205.56 29.43, 221.67 8.52 M180.34 56.07 C192.78 41.57, 205.73 26.5, 221.67 8.52 M190.97 56.03 C199.62 45.43, 207.78 36.56, 221.8 20.56 M190.97 56.03 C201.04 45.51, 209.62 33.17, 221.8 20.56 M201.6 56 C205.65 50.63, 211.8 43.34, 221.94 32.6 M201.6 56 C205.77 51.73, 210.17 46.39, 221.94 32.6 M210.92 57.47 C215.19 53.18, 219.87 48.83, 222.07 44.64 M210.92 57.47 C213.75 53.21, 217.62 50.61, 222.07 44.64" stroke="#ffc9c9" stroke-width="1" fill="none"></path><path d="M13.86 0 C71.06 -0.25, 128.93 -0.73, 208.18 0 M13.86 0 C57.1 -0.42, 100.92 1.26, 208.18 0 M208.18 0 C217.62 -0.26, 220.34 4.64, 222.04 13.86 M208.18 0 C218.57 -0.99, 223.82 5.95, 222.04 13.86 M222.04 13.86 C223.61 24.08, 221.35 36.1, 222.04 41.57 M222.04 13.86 C222.16 22.62, 222.14 32.49, 222.04 41.57 M222.04 41.57 C221.06 50.26, 216.75 57.19, 208.18 55.42 M222.04 41.57 C221.79 51.78, 216.28 57.7, 208.18 55.42 M208.18 55.42 C147.42 54.97, 84.97 52.73, 13.86 55.42 M208.18 55.42 C144.84 55.06, 82 56, 13.86 55.42 M13.86 55.42 C6.26 56.85, 1.83 50.85, 0 41.57 M13.86 55.42 C4.52 53.93, 1.53 52.48, 0 41.57 M0 41.57 C-0.14 35.34, -0.15 27.6, 0 13.86 M0 41.57 C-0.14 34.2, 0 28.29, 0 13.86 M0 13.86 C0.89 6.14, 4.57 1.26, 13.86 0 M0 13.86 C-1.53 5.54, 5.46 -1.63, 13.86 0" stroke="#1e1e1e" stroke-width="2" fill="none"></path></g><g transform="translate(36.722274305005726 401.3118509260688) rotate(0 86.51995849609375 17.5)"><text x="86.51995849609375" y="24.528" font-family="Virgil, Segoe UI Emoji" font-size="28px" fill="#1e1e1e" text-anchor="middle" style="white-space: pre;" direction="ltr" dominant-baseline="alphabetic">if valid User</text></g><g mask="url(#mask-j7z4KuxZKz8_vrQx9ASGM)" stroke-linecap="round"><g transform="translate(711.6079182511496 477.7517488897947) rotate(0 355.256484851677 -1.2226430289304062)"><path d="M0.12 -0.89 C118.31 -1.29, 591.27 -2.29, 709.55 -2.73 M-1.28 1.25 C117.24 1.07, 593.43 -0.68, 711.76 -1.34" stroke="#1e1e1e" stroke-width="2" fill="none"></path></g><g transform="translate(711.6079182511496 477.7517488897947) rotate(0 355.256484851677 -1.2226430289304062)"><path d="M688.3 7.32 C694.67 2.8, 703.51 0.38, 711.76 -1.34 M688.3 7.32 C693.43 5.16, 697.46 3.46, 711.76 -1.34" stroke="#1e1e1e" stroke-width="2" fill="none"></path></g><g transform="translate(711.6079182511496 477.7517488897947) rotate(0 355.256484851677 -1.2226430289304062)"><path d="M688.23 -9.79 C694.56 -8.59, 703.44 -5.31, 711.76 -1.34 M688.23 -9.79 C693.28 -8.31, 697.32 -6.38, 711.76 -1.34" stroke="#1e1e1e" stroke-width="2" fill="none"></path></g></g><mask id="mask-j7z4KuxZKz8_vrQx9ASGM"><rect x="0" y="0" fill="#fff" width="1522.1208879545036" height="580.1970349476555"></rect><rect x="910.3904651145453" y="454.0291058608643" fill="#000" width="312.9478759765625" height="45" opacity="1"></rect></mask><g transform="translate(910.3904651145453 454.0291058608643) rotate(0 156.45697828322642 22.983734773881736)"><text x="156.47393798828125" y="31.536" font-family="Virgil, Segoe UI Emoji" font-size="36px" fill="#1e1e1e" text-anchor="middle" style="white-space: pre;" direction="ltr" dominant-baseline="alphabetic">  Deploy Project </text></g><g stroke-linecap="round"><g transform="translate(1759.1668513884817 90.54917539111557) rotate(0 0 0)"><path d="M-0.2 -0.31 C-0.19 -0.25, -0.24 0.24, -0.2 0.29 M0.34 0.3 C0.49 0.27, 0.57 -0.19, 0.49 -0.19" stroke="#1e1e1e" stroke-width="2" fill="none"></path></g><g transform="translate(1759.1668513884817 90.54917539111557) rotate(0 0 0)"><path d="M0.49 -0.19 C0.49 -0.19, 0.49 -0.19, 0.49 -0.19 M0.49 -0.19 C0.49 -0.19, 0.49 -0.19, 0.49 -0.19" stroke="#1e1e1e" stroke-width="2" fill="none"></path></g><g transform="translate(1759.1668513884817 90.54917539111557) rotate(0 0 0)"><path d="M0.49 -0.19 C0.49 -0.19, 0.49 -0.19, 0.49 -0.19 M0.49 -0.19 C0.49 -0.19, 0.49 -0.19, 0.49 -0.19" stroke="#1e1e1e" stroke-width="2" fill="none"></path></g></g><mask></mask><g stroke-linecap="round" transform="translate(1651.4774218304167 1128.4523860278823) rotate(0 115.08984973977522 77.07611266064578)"><path d="M7.86 8.16 C7.86 8.16, 7.86 8.16, 7.86 8.16 M7.86 8.16 C7.86 8.16, 7.86 8.16, 7.86 8.16 M1.43 27.75 C8.7 19.72, 13.77 9.74, 24.4 1.33 M1.43 27.75 C9.41 18.77, 17.06 8.86, 24.4 1.33 M0.91 40.54 C13.59 27.88, 22.57 15.81, 36.34 -0.21 M0.91 40.54 C11.54 26.96, 23.98 14.27, 36.34 -0.21 M1.04 52.58 C9.45 40.45, 19.36 31.88, 46.97 -0.25 M1.04 52.58 C13.44 39.4, 25.6 23.86, 46.97 -0.25 M1.18 64.62 C17.29 47.39, 32.05 27.78, 57.6 -0.28 M1.18 64.62 C20.25 43.44, 38.72 21.69, 57.6 -0.28 M1.31 76.67 C22.54 55.02, 40.21 29.34, 67.57 0.44 M1.31 76.67 C25.48 49.88, 47.51 23.34, 67.57 0.44 M1.44 88.71 C20.99 67.51, 38.03 45.58, 78.2 0.41 M1.44 88.71 C18.36 69.27, 34.25 50.34, 78.2 0.41 M0.92 101.5 C26.86 70.99, 53.48 40.94, 88.83 0.37 M0.92 101.5 C23.1 74.87, 44.92 50.15, 88.83 0.37 M1.05 113.54 C19.46 88.75, 41.45 63.18, 99.46 0.34 M1.05 113.54 C41.05 68.95, 80.41 23.39, 99.46 0.34 M1.19 125.58 C30.67 92.63, 60.95 57.06, 110.09 0.3 M1.19 125.58 C38 82.95, 75.9 38.77, 110.09 0.3 M3.29 135.36 C35.79 96.15, 69.01 60.07, 120.72 0.27 M3.29 135.36 C48.15 84.28, 92.88 33.06, 120.72 0.27 M6.7 143.63 C46.69 99.3, 90.61 51.83, 131.35 0.23 M6.7 143.63 C45.19 99.13, 85.13 52.83, 131.35 0.23 M12.08 149.63 C57.56 96.79, 102.19 42.6, 141.98 0.2 M12.08 149.63 C50.93 105.99, 88.94 61.22, 141.98 0.2 M20.09 152.61 C63.91 101.77, 106.05 51.78, 152.61 0.16 M20.09 152.61 C68.88 97.21, 116.7 41.41, 152.61 0.16 M28.75 154.84 C58.52 120.99, 91.8 84.02, 163.24 0.13 M28.75 154.84 C58.47 120.33, 89.93 82.89, 163.24 0.13 M40.04 154.06 C93.41 92.44, 145.3 31.74, 173.87 0.09 M40.04 154.06 C75.02 112.71, 110.96 71.9, 173.87 0.09 M50.67 154.02 C92.7 106.27, 134.8 58.97, 184.5 0.06 M50.67 154.02 C87.72 111.15, 124.16 69.89, 184.5 0.06 M61.3 153.99 C111.7 95.58, 160.84 38.55, 195.13 0.03 M61.3 153.99 C94.94 115.18, 128.7 75.83, 195.13 0.03 M71.93 153.95 C109.36 110.96, 145.33 70.4, 205.11 0.75 M71.93 153.95 C102.18 118.09, 133.66 83.36, 205.11 0.75 M82.56 153.92 C128.71 101.06, 179.86 46.52, 213.11 3.73 M82.56 153.92 C130.39 100.52, 178.61 45.51, 213.11 3.73 M93.19 153.88 C124.95 119.41, 154.19 86.46, 220.46 7.47 M93.19 153.88 C140.47 98.25, 187.54 43.52, 220.46 7.47 M103.82 153.85 C133.37 120.92, 163.72 85.89, 226.5 12.72 M103.82 153.85 C140 114.25, 175.32 72.84, 226.5 12.72 M114.45 153.81 C154.12 105.42, 197.54 59.57, 229.26 21.74 M114.45 153.81 C143.51 118.12, 173.55 83.96, 229.26 21.74 M125.08 153.78 C154.9 119.62, 184.21 84.66, 230.7 32.27 M125.08 153.78 C157.03 116.74, 188.62 80.58, 230.7 32.27 M135.05 154.5 C162.08 127.29, 185.35 98.4, 230.84 44.31 M135.05 154.5 C165.22 121.58, 194.1 88.86, 230.84 44.31 M145.68 154.47 C176.35 115.64, 208.86 79.69, 230.31 57.11 M145.68 154.47 C175.08 118.32, 205.85 84.43, 230.31 57.11 M156.31 154.43 C170.37 134.99, 187.87 118.52, 230.45 69.15 M156.31 154.43 C172.16 135.88, 189.11 118.37, 230.45 69.15 M166.94 154.4 C192.49 127.28, 216.94 97.62, 230.58 81.19 M166.94 154.4 C190.57 126.67, 214.61 97.97, 230.58 81.19 M177.57 154.36 C193.61 133.4, 213.13 114.81, 230.71 93.23 M177.57 154.36 C195.83 132.8, 214.99 109.38, 230.71 93.23 M188.2 154.33 C203.75 134.89, 222.16 116.31, 230.85 105.27 M188.2 154.33 C204.57 134.91, 221.74 116.34, 230.85 105.27 M198.83 154.29 C208.64 141.85, 220.05 130.74, 230.32 118.07 M198.83 154.29 C206.75 146.11, 212.59 138.22, 230.32 118.07 M210.78 152.75 C214.65 145.97, 221.46 142.78, 230.46 130.11 M210.78 152.75 C217.21 145.14, 224.09 136.98, 230.46 130.11" stroke="#ffc9c9" stroke-width="1" fill="none"></path><path d="M32 0 C74.02 1.16, 112.56 -0.74, 198.18 0 M32 0 C82.81 1.29, 132.84 1.5, 198.18 0 M198.18 0 C219.44 1.36, 229.92 9.77, 230.18 32 M198.18 0 C220.98 1.1, 231.22 11.59, 230.18 32 M230.18 32 C228.08 58.09, 228.84 85.46, 230.18 122.15 M230.18 32 C229.59 68, 230.23 101.32, 230.18 122.15 M230.18 122.15 C228.66 143.76, 220.54 153.03, 198.18 154.15 M230.18 122.15 C228.78 144.11, 218.42 153.94, 198.18 154.15 M198.18 154.15 C145.93 157.42, 92.08 157.61, 32 154.15 M198.18 154.15 C148.57 153.8, 96.86 152.68, 32 154.15 M32 154.15 C10.28 153.9, -0.05 143.23, 0 122.15 M32 154.15 C8.82 152.89, 0.69 143.46, 0 122.15 M0 122.15 C1.11 96.47, 2.04 68.96, 0 32 M0 122.15 C0.96 88.72, 1.13 56.97, 0 32 M0 32 C0.86 10.81, 11.11 0.53, 32 0 M0 32 C-2.04 8.95, 10.29 -1.61, 32 0" stroke="#1e1e1e" stroke-width="2" fill="none"></path></g><g transform="translate(1659.8812974490982 1138.028498688528) rotate(0 106.68597412109375 67.5)"><text x="106.68597412109375" y="31.536" font-family="Virgil, Segoe UI Emoji" font-size="36px" fill="#1e1e1e" text-anchor="middle" style="white-space: pre;" direction="ltr" dominant-baseline="alphabetic">Github</text><text x="106.68597412109375" y="76.536" font-family="Virgil, Segoe UI Emoji" font-size="36px" fill="#1e1e1e" text-anchor="middle" style="white-space: pre;" direction="ltr" dominant-baseline="alphabetic">Service</text><text x="106.68597412109375" y="121.536" font-family="Virgil, Segoe UI Emoji" font-size="36px" fill="#1e1e1e" text-anchor="middle" style="white-space: pre;" direction="ltr" dominant-baseline="alphabetic">/ DockerHub</text></g><g mask="url(#mask-ajro8f3kjBC2_oo15y4CQ)" stroke-linecap="round"><g transform="translate(1419.6836721476586 552.1529061787519) rotate(0 170.3508935721227 -2.2919512885559925)"><path d="M-1.02 0.01 C55.85 -0.81, 284.19 -4.45, 341.3 -5.1 M0.65 -1.03 C57.4 -1.68, 283.89 -3.03, 340.67 -3.83" stroke="#1e1e1e" stroke-width="2" fill="none"></path></g><g transform="translate(1419.6836721476586 552.1529061787519) rotate(0 170.3508935721227 -2.2919512885559925)"><path d="M317.26 4.94 C324.55 3.42, 330.94 1.25, 340.67 -3.83 M317.26 4.94 C325.53 2.3, 333.81 -1.97, 340.67 -3.83" stroke="#1e1e1e" stroke-width="2" fill="none"></path></g><g transform="translate(1419.6836721476586 552.1529061787519) rotate(0 170.3508935721227 -2.2919512885559925)"><path d="M317.1 -12.16 C324.42 -8.38, 330.85 -5.24, 340.67 -3.83 M317.1 -12.16 C325.56 -8.68, 333.9 -6.84, 340.67 -3.83" stroke="#1e1e1e" stroke-width="2" fill="none"></path></g></g><mask id="mask-ajro8f3kjBC2_oo15y4CQ"><rect x="0" y="0" fill="#fff" width="1860.385459291904" height="656.7368087558639"></rect><rect x="1491.1066024629454" y="504.8609548901959" fill="#000" width="197.85592651367188" height="90" opacity="1"></rect></mask><g transform="translate(1491.1066024629451 504.8609548901959) rotate(0 98.7195596229285 44.7481876540929)"><text x="98.92796325683594" y="31.536" font-family="Virgil, Segoe UI Emoji" font-size="36px" fill="#1e1e1e" text-anchor="middle" style="white-space: pre;" direction="ltr" dominant-baseline="alphabetic">Fetch Code</text><text x="98.92796325683594" y="76.536" font-family="Virgil, Segoe UI Emoji" font-size="36px" fill="#1e1e1e" text-anchor="middle" style="white-space: pre;" direction="ltr" dominant-baseline="alphabetic">/ Image</text></g><g mask="url(#mask-PgaEW_MYTlBiRzQRcIDt1)" stroke-linecap="round"><g transform="translate(1754.0745229973588 641.2081261407752) rotate(0 -167.92981826730988 -1.4607154339034878)"><path d="M0.93 0.69 C-54.99 0.45, -278.78 -1.52, -334.92 -1.98 M-0.04 0.01 C-56.09 -0.51, -279.27 -2.94, -335.38 -3.61" stroke="#1e1e1e" stroke-width="2" fill="none"></path></g><g transform="translate(1754.0745229973588 641.2081261407752) rotate(0 -167.92981826730988 -1.4607154339034878)"><path d="M-311.79 -11.9 C-318.93 -7.25, -326.77 -5.99, -335.38 -3.61 M-311.79 -11.9 C-319.84 -8.47, -328.71 -5.5, -335.38 -3.61" stroke="#1e1e1e" stroke-width="2" fill="none"></path></g><g transform="translate(1754.0745229973588 641.2081261407752) rotate(0 -167.92981826730988 -1.4607154339034878)"><path d="M-311.98 5.2 C-318.98 3.86, -326.76 -0.86, -335.38 -3.61 M-311.98 5.2 C-319.94 2.33, -328.74 -0.99, -335.38 -3.61" stroke="#1e1e1e" stroke-width="2" fill="none"></path></g></g><mask id="mask-PgaEW_MYTlBiRzQRcIDt1"><rect x="0" y="0" fill="#fff" width="2189.9341595319784" height="744.1295570085822"></rect><rect x="1532.0187205381544" y="617.2474107068717" fill="#000" width="108.25196838378906" height="45" opacity="1"></rect></mask><g transform="translate(1532.0187205381542 617.2474107068717) rotate(0 54.83402796503162 22.500973097719253)"><text x="54.12598419189453" y="31.536" font-family="Virgil, Segoe UI Emoji" font-size="36px" fill="#1e1e1e" text-anchor="middle" style="white-space: pre;" direction="ltr" dominant-baseline="alphabetic">return</text></g><g mask="url(#mask-zStYgfq4BSH-5nMYBmP8z)" stroke-linecap="round"><g transform="translate(1422.0159746912948 721.628177515634) rotate(0 -359.4368748779866 0.6254444537432846)"><path d="M-0.05 0.82 C-120.04 0.78, -599.35 0.54, -719.03 0.71 M-1.53 0.2 C-121.78 0.24, -600.57 2.03, -720.06 1.96" stroke="#1e1e1e" stroke-width="2" fill="none"></path></g><g transform="translate(1422.0159746912948 721.628177515634) rotate(0 -359.4368748779866 0.6254444537432846)"><path d="M-696.58 -6.63 C-704.03 -3.65, -715.18 1.14, -720.06 1.96 M-696.58 -6.63 C-704.71 -4.43, -712.9 -1.21, -720.06 1.96" stroke="#1e1e1e" stroke-width="2" fill="none"></path></g><g transform="translate(1422.0159746912948 721.628177515634) rotate(0 -359.4368748779866 0.6254444537432846)"><path d="M-696.55 10.47 C-704.15 6.99, -715.3 5.31, -720.06 1.96 M-696.55 10.47 C-704.77 6.73, -712.97 3.99, -720.06 1.96" stroke="#1e1e1e" stroke-width="2" fill="none"></path></g></g><mask id="mask-zStYgfq4BSH-5nMYBmP8z"><rect x="0" y="0" fill="#fff" width="2240.8897244472682" height="822.8790664231205"></rect><rect x="885.5671674402611" y="699.7536219693773" fill="#000" width="354.02386474609375" height="45" opacity="1"></rect></mask><g transform="translate(885.5671674402613 699.7536219693773) rotate(0 176.39668751027438 22.957748767559366)"><text x="177.01193237304688" y="31.536" font-family="Virgil, Segoe UI Emoji" font-size="36px" fill="#1e1e1e" text-anchor="middle" style="white-space: pre;" direction="ltr" dominant-baseline="alphabetic">Deployment Status </text></g><g mask="url(#mask-UOgNtWbUwnmXfJbky-Enx)" stroke-linecap="round"><g transform="translate(713.4963569889035 807.5198590793689) rotate(0 687.7145105830352 -7.1300667726731035)"><path d="M0.77 0.58 C230.12 -1.63, 1146.86 -11.13, 1375.97 -13.78 M-0.29 -0.17 C228.97 -2.69, 1146.15 -13.25, 1375.31 -15.65" stroke="#1e1e1e" stroke-width="2" fill="none"></path></g><g transform="translate(713.4963569889035 807.5198590793689) rotate(0 687.7145105830352 -7.1300667726731035)"><path d="M1351.91 -6.84 C1359.62 -8.62, 1366.18 -12.04, 1375.31 -15.65 M1351.91 -6.84 C1356.38 -8.82, 1361.5 -9.54, 1375.31 -15.65" stroke="#1e1e1e" stroke-width="2" fill="none"></path></g><g transform="translate(713.4963569889035 807.5198590793689) rotate(0 687.7145105830352 -7.1300667726731035)"><path d="M1351.72 -23.94 C1359.41 -20.81, 1366.02 -19.33, 1375.31 -15.65 M1351.72 -23.94 C1356.23 -22.3, 1361.38 -19.39, 1375.31 -15.65" stroke="#1e1e1e" stroke-width="2" fill="none"></path></g></g><mask id="mask-UOgNtWbUwnmXfJbky-Enx"><rect x="0" y="0" fill="#fff" width="2188.925378154974" height="921.7799926247151"></rect><rect x="1245.690909075845" y="777.8897923066957" fill="#000" width="311.0399169921875" height="45" opacity="1"></rect></mask><g transform="translate(1245.6909090758447 777.8897923066958) rotate(0 155.6457049363479 22.09313168171792)"><text x="155.51995849609375" y="31.536" font-family="Virgil, Segoe UI Emoji" font-size="36px" fill="#1e1e1e" text-anchor="middle" style="white-space: pre;" direction="ltr" dominant-baseline="alphabetic"> Updated Status</text></g><g mask="url(#mask-gBIQpuowDF9jPZn5QtoTV)" stroke-linecap="round"><g transform="translate(2085.148500679466 863.0109050656738) rotate(0 -688.6466245753882 5.015661006470054)"><path d="M0 -1.06 C-229.64 0.4, -1147.67 7.45, -1377.32 9.25 M-1.46 1 C-231.31 2.56, -1148.7 8.73, -1378.28 10.37" stroke="#1e1e1e" stroke-width="2" fill="none"></path></g><g transform="translate(2085.148500679466 863.0109050656738) rotate(0 -688.6466245753882 5.015661006470054)"><path d="M-1354.85 1.66 C-1364.66 4.62, -1372.29 6.7, -1378.28 10.37 M-1354.85 1.66 C-1361.38 4.67, -1368.17 7.62, -1378.28 10.37" stroke="#1e1e1e" stroke-width="2" fill="none"></path></g><g transform="translate(2085.148500679466 863.0109050656738) rotate(0 -688.6466245753882 5.015661006470054)"><path d="M-1354.73 18.76 C-1364.65 15.82, -1372.33 12, -1378.28 10.37 M-1354.73 18.76 C-1361.24 17.1, -1368.06 15.38, -1378.28 10.37" stroke="#1e1e1e" stroke-width="2" fill="none"></path></g></g><mask id="mask-gBIQpuowDF9jPZn5QtoTV"><rect x="0" y="0" fill="#fff" width="3562.4417498302423" height="973.0422270786139"></rect><rect x="1219.4539329888435" y="845.5265660721439" fill="#000" width="354.09588623046875" height="45" opacity="1"></rect></mask><g transform="translate(1219.453932988844 845.5265660721439) rotate(0 176.55375825252383 22.142492099739627)"><text x="177.04794311523438" y="31.536" font-family="Virgil, Segoe UI Emoji" font-size="36px" fill="#1e1e1e" text-anchor="middle" style="white-space: pre;" direction="ltr" dominant-baseline="alphabetic">Dashboard Updated</text></g><g mask="url(#mask-KhgOnmxA5RqXIJdD0FJT6)" stroke-linecap="round"><g transform="translate(715.546200746978 915.3222721516577) rotate(0 -213.4339286212628 -0.8393061056683564)"><path d="M-0.59 -0.32 C-71.79 -0.3, -356.2 -0.48, -427.27 -0.62 M1.31 -1.54 C-70.09 -1.76, -356.9 -1.9, -428.43 -2.18" stroke="#1e1e1e" stroke-width="2" fill="none"></path></g><g transform="translate(715.546200746978 915.3222721516577) rotate(0 -213.4339286212628 -0.8393061056683564)"><path d="M-404.92 -10.69 C-412.51 -8.94, -417.2 -5.95, -428.43 -2.18 M-404.92 -10.69 C-412.86 -8.24, -421.81 -4.49, -428.43 -2.18" stroke="#1e1e1e" stroke-width="2" fill="none"></path></g><g transform="translate(715.546200746978 915.3222721516577) rotate(0 -213.4339286212628 -0.8393061056683564)"><path d="M-404.95 6.41 C-412.42 3.07, -417.1 0.97, -428.43 -2.18 M-404.95 6.41 C-412.8 3, -421.74 0.9, -428.43 -2.18" stroke="#1e1e1e" stroke-width="2" fill="none"></path></g></g><mask id="mask-KhgOnmxA5RqXIJdD0FJT6"><rect x="0" y="0" fill="#fff" width="1242.4140579895036" height="1017.0008843629944"></rect><rect x="329.92434487962146" y="891.9829660459893" fill="#000" width="344.3758544921875" height="45" opacity="1"></rect></mask><g transform="translate(329.9243448796214 891.9829660459893) rotate(0 172.062420771122 22.086366930322015)"><text x="172.18792724609375" y="31.536" font-family="Virgil, Segoe UI Emoji" font-size="36px" fill="#1e1e1e" text-anchor="middle" style="white-space: pre;" direction="ltr" dominant-baseline="alphabetic">Deployment success</text></g><g stroke-linecap="round"><g transform="translate(16.186317947794294 941.8814682454522) rotate(0 1059.83782005824 -3.19985452786068)"><path d="M-0.13 0.51 C353.12 -0.54, 1765.75 -3.92, 2119.08 -5.21" stroke="#1e1e1e" stroke-width="2.5" fill="none" stroke-dasharray="8 10"></path></g></g><mask></mask><g stroke-linecap="round" transform="translate(16.71491938934531 939.7376362687564) rotate(0 111.0184081021816 27.710387195516773)"><path d="M3.69 3.21 C3.69 3.21, 3.69 3.21, 3.69 3.21 M3.69 3.21 C3.69 3.21, 3.69 3.21, 3.69 3.21 M0.54 19.02 C6.27 13.56, 12.32 3.54, 16.94 0.15 M0.54 19.02 C5.78 12.08, 10.72 6.42, 16.94 0.15 M1.33 30.31 C5.94 22.8, 14.14 14.54, 27.57 0.12 M1.33 30.31 C9.84 20.2, 17.9 10.92, 27.57 0.12 M1.46 42.35 C15.01 23.99, 31.24 7.23, 38.2 0.08 M1.46 42.35 C14.5 26.65, 27.16 11.01, 38.2 0.08 M4.22 51.37 C18.44 33.43, 34.83 13.93, 48.83 0.05 M4.22 51.37 C13.04 40.2, 23.64 29.39, 48.83 0.05 M10.91 55.86 C25.52 39.15, 38.38 24.97, 59.46 0.01 M10.91 55.86 C25.06 39.85, 39.43 22.77, 59.46 0.01 M21.54 55.83 C38.46 34.46, 58.06 16.41, 70.09 -0.02 M21.54 55.83 C32.79 42.78, 42.34 30.7, 70.09 -0.02 M32.17 55.79 C48.11 37.02, 63.9 21.11, 80.07 0.7 M32.17 55.79 C50.95 34.23, 67.82 14.36, 80.07 0.7 M42.8 55.76 C58.14 39.5, 75.4 18.91, 90.7 0.67 M42.8 55.76 C57.87 38.48, 72.94 20.82, 90.7 0.67 M53.43 55.73 C66.77 43.21, 77.49 28.26, 101.33 0.63 M53.43 55.73 C70.02 36.34, 86.18 19.46, 101.33 0.63 M64.06 55.69 C74.13 41.22, 87.76 29.53, 111.96 0.6 M64.06 55.69 C75.17 42.46, 87.18 29.77, 111.96 0.6 M74.69 55.66 C83.68 43.62, 95.99 32.35, 122.59 0.56 M74.69 55.66 C91.9 35.69, 108.3 16.27, 122.59 0.56 M85.32 55.62 C98.29 42.97, 107.23 30.34, 133.22 0.53 M85.32 55.62 C97.78 40.2, 110.99 26.62, 133.22 0.53 M95.96 55.59 C108.9 38.81, 122.37 24.38, 143.85 0.49 M95.96 55.59 C114.7 34.43, 132.01 13.97, 143.85 0.49 M106.59 55.55 C120.27 40.64, 131.69 24.98, 154.48 0.46 M106.59 55.55 C124.52 35.42, 142.01 16.32, 154.48 0.46 M117.22 55.52 C133.06 37.12, 145.59 23.17, 165.11 0.42 M117.22 55.52 C131.89 38.72, 146.25 21.79, 165.11 0.42 M127.85 55.48 C139.75 43.03, 149.58 29.87, 175.74 0.39 M127.85 55.48 C140.3 42.41, 152.96 27.68, 175.74 0.39 M138.48 55.45 C152.05 43.71, 163.53 28.01, 186.37 0.36 M138.48 55.45 C150.32 42.51, 159.97 29.28, 186.37 0.36 M149.11 55.41 C166.24 37.68, 182.05 19.49, 197 0.32 M149.11 55.41 C167.72 33.7, 185.94 12.53, 197 0.32 M159.08 56.13 C171.88 42.05, 180.87 30.32, 207.63 0.29 M159.08 56.13 C170.83 42.33, 181.97 30.42, 207.63 0.29 M169.71 56.1 C182.18 43.88, 192.41 30.12, 216.95 1.76 M169.71 56.1 C184.78 38.3, 200.53 21.75, 216.95 1.76 M180.34 56.07 C191.7 42.43, 206.86 26.09, 221.67 8.52 M180.34 56.07 C194.2 40.56, 207.21 23.82, 221.67 8.52 M190.97 56.03 C200.71 45.59, 211.58 29.87, 221.8 20.56 M190.97 56.03 C202.8 43.73, 213.94 29.62, 221.8 20.56 M201.6 56 C208.54 46.31, 217.43 39.23, 221.94 32.6 M201.6 56 C209.21 47.33, 216.18 39.61, 221.94 32.6 M213.54 54.45 C216.52 52.1, 217.98 47.19, 222.07 44.64 M213.54 54.45 C216.52 51.77, 219.45 48.23, 222.07 44.64" stroke="#ffc9c9" stroke-width="1" fill="none"></path><path d="M13.86 0 C72.08 1.24, 124.93 -0.56, 208.18 0 M13.86 0 C74.24 1.37, 135.38 1, 208.18 0 M208.18 0 C217.89 -0.35, 223.99 6.13, 222.04 13.86 M208.18 0 C219.31 1.65, 224.14 4.68, 222.04 13.86 M222.04 13.86 C223.32 20.51, 221.08 29.87, 222.04 41.57 M222.04 13.86 C221.22 21.27, 222.33 29.78, 222.04 41.57 M222.04 41.57 C221.93 49.65, 217.59 56.02, 208.18 55.42 M222.04 41.57 C223.06 52.56, 217.36 56.87, 208.18 55.42 M208.18 55.42 C161.37 57.2, 117.93 56.99, 13.86 55.42 M208.18 55.42 C147.62 55.19, 88.68 55.24, 13.86 55.42 M13.86 55.42 C4.84 56.61, -1.8 51.3, 0 41.57 M13.86 55.42 C6.67 56.21, 2.25 53.03, 0 41.57 M0 41.57 C-1.44 35.13, 0.88 28.28, 0 13.86 M0 41.57 C0.04 33.13, -0.99 23.63, 0 13.86 M0 13.86 C1.02 3.27, 5.77 -0.53, 13.86 0 M0 13.86 C0.98 3.07, 4.13 0.53, 13.86 0" stroke="#1e1e1e" stroke-width="2" fill="none"></path></g><g transform="translate(31.609380347972206 949.9480234642732) rotate(0 96.12394714355469 17.5)"><text x="96.12394714355469" y="24.528" font-family="Virgil, Segoe UI Emoji" font-size="28px" fill="#1e1e1e" text-anchor="middle" style="white-space: pre;" direction="ltr" dominant-baseline="alphabetic">if invalid User</text></g><g mask="url(#mask-qJbpDB4nAEIui6Fja084C)" stroke-linecap="round"><g transform="translate(286.49130547910516 1032.0665233497216) rotate(0 -138.23936477929146 1.8884387377538587)"><path d="M-0.91 0.17 C-46.92 0.82, -229.82 2.45, -275.87 3.1 M0.81 -0.79 C-45.31 0.08, -230.57 3.22, -276.49 4.28" stroke="#1e1e1e" stroke-width="2" fill="none"></path></g><g transform="translate(286.49130547910516 1032.0665233497216) rotate(0 -138.23936477929146 1.8884387377538587)"><path d="M-253.17 -4.72 C-260.28 -1.05, -269.01 -0.46, -276.49 4.28 M-253.17 -4.72 C-260.61 -1.97, -267.5 1.91, -276.49 4.28" stroke="#1e1e1e" stroke-width="2" fill="none"></path></g><g transform="translate(286.49130547910516 1032.0665233497216) rotate(0 -138.23936477929146 1.8884387377538587)"><path d="M-252.84 12.37 C-259.93 10.68, -268.77 5.89, -276.49 4.28 M-252.84 12.37 C-260.3 9.53, -267.3 7.82, -276.49 4.28" stroke="#1e1e1e" stroke-width="2" fill="none"></path></g></g><mask id="mask-qJbpDB4nAEIui6Fja084C"><rect x="0" y="0" fill="#fff" width="662.9700350376881" height="1135.8434008252293"></rect><rect x="102.92795083164964" y="1011.4549620874755" fill="#000" width="90.64797973632812" height="45" opacity="1"></rect></mask><g transform="translate(102.92795083164964 1011.4549620874755) rotate(0 45.72409921318291 22.358193405568613)"><text x="45.32398986816406" y="31.536" font-family="Virgil, Segoe UI Emoji" font-size="36px" fill="#1e1e1e" text-anchor="middle" style="white-space: pre;" direction="ltr" dominant-baseline="alphabetic">Error</text></g></svg>